<svg height="500" width="500" xmlns="http://www.w3.org/2000/svg"><polygon points="223.0390000000004,258.9100226032488 212.1137500000005,259.9509872088469 209.48925000000094,259.7022772086641 202.18025000000276,255.28261148233597 203.08562500000124,255.02344405559248 204.4081250000017,254.8811776996039 221.2944999999981,256.3954534698896 222.520249999997,256.7917800568283 224.76324999999835,257.73677781473066 223.0390000000004,258.9100226032488" /><polygon points="372.89562500000113,366.06364338874664 373.7653750000009,366.3027526412268 374.20787499999904,366.0487140090893 374.62500000000097,365.6852566730457 375.41837499999764,365.6055865270067 379.9655000000007,366.5118728713946 381.15574999999995,367.66182974762046 380.61649999999895,369.86661246806807 379.13650000000274,370.96108973458354 377.03075000000035,371.12039485518045 372.85487500000175,370.7720693407823 369.3962500000024,371.7371540385682 368.18062500000195,371.2745606189971 366.88362500000056,369.0305975384546 366.08000000000015,371.8117227768522 368.08912500000014,373.5574404420894 373.7907499999996,375.7796332937024 375.9677500000007,377.6283688023091 374.8080000000021,377.8072612506766 372.0563749999995,376.9674538935547 369.4471250000002,375.7796332937024 369.99650000000076,377.5836753034685 372.81425000000024,379.86880298091944 373.7907499999996,381.6863824218484 369.4471250000002,382.4509203295554 370.3321250000015,383.1855861451306 371.00349999999946,384.00955828374344 372.00037500000104,385.77601416579705 368.6638749999982,384.92755241923373 365.7036249999976,382.9919865178784 360.9123749999994,379.034317777093 362.5043749999999,378.05074094673427 363.78100000000035,376.6792250171287 364.0302499999999,375.4665430663073 362.534875000003,374.9445232406812 360.8614999999991,374.10928548532615 360.3122499999988,372.20471987382854 360.1392499999996,370.095405824723 358.979625,367.2735215832912 359.1474999999999,365.62553476798115 360.75974999999977,361.4310059072185 361.4057500000003,360.4241622228962 362.6619999999998,360.17499483772644 365.17462500000164,360.6684185104243 366.5784999999992,360.7880927482829 367.3821249999997,361.24153261490017 367.5041250000021,362.06882237020545 366.88362500000056,363.25461003551425 369.89475000000147,364.6493316205627 371.30875000000117,364.9880116515756 372.89562500000113,366.06364338874664" /><polygon points="292.8887500000006,290.4476000071174 290.69649999999916,292.2700001943872 292.62425000000076,291.52295112329784 294.41962500000085,291.4017413116107 295.82849999999866,292.14384520737036 296.58637500000316,293.96059024537965 299.12450000000035,293.3198132032998 305.66537499999896,293.1179037355571 306.9878749999994,292.6586184646171 308.25937499999924,290.8161244540928 311.1584999999995,289.4023182198663 314.32225000000005,288.66492749379836 316.3769999999981,288.8770570879491 318.3760000000009,290.97767170429023 319.40849999999995,292.7949321483242 319.1338749999992,294.98986640000544 317.2314999999988,298.1974580687653 318.4064999999978,299.916423175906 316.6365000000026,301.04537805785117 313.67112499999763,301.5996750568812 311.2501250000017,301.5794905265538 308.61037499999935,300.60187485451274 303.64099999999996,297.8949876637266 300.93512499999696,297.350349649481 301.04700000000093,297.9301796811714 301.19462500000276,298.02100872585163 301.40812499999697,297.98569338468883 301.7082500000006,298.1974580687653 300.79787499999804,300.7127230961036 305.6806250000018,303.7004363322708 302.64412499999963,305.8002598785248 299.7450000000018,306.1175079093845 297.629125000001,304.81845508324466 293.25487500000065,299.89127756388586 294.1297499999998,297.51678295842015 288.04662499999836,293.10785767470907 287.20224999999857,290.49301548659975 290.12175000000104,288.80643089671486 295.15212500000285,288.5235445208599 304.42937500000005,289.7254923132941 301.0368750000025,290.4476000071174 292.8887500000006,290.4476000071174" /><polygon points="125.2657499999999,108.46803578035457 127.45287499999696,108.54646996763864 128.89737499999978,107.83076321561498 130.9013750000004,107.9456679280363 132.8952500000001,108.56213099234651 134.31937500000197,109.42392964536407 135.46887499999812,110.36386754461068 136.39962499999908,110.81811981096712 145.70237499999908,113.02094906303716 152.74174999999926,113.40187111532538 155.8138749999964,112.97926401602223 162.12087499999862,111.16263270790796 165.54387500000047,110.77115654626505 168.8703750000015,111.3349449306645 174.7551250000012,113.73069903603653 178.04087500000034,114.27852938782462 179.13949999999994,115.58811776532667 179.57687499999872,118.55023324728762 179.54637499999936,121.77116005199173 179.27687499999925,123.81841759712034 177.48137499999882,126.53659188782291 174.9738749999976,127.52032572755684 172.15099999999757,128.09282883549747 169.4247499999999,129.57061518614836 165.59987500000264,133.43999577536533 164.83699999999786,135.7167499996524 167.32924999999872,136.98979047216795 168.16337499999852,136.5897394160978 171.13374999999755,133.98069008039016 172.37475000000052,133.20093312952378 173.72262499999965,132.80570875489525 176.7185000000003,132.62897915002236 178.98687499999787,131.75534014012788 180.61449999999962,129.59657124849252 181.59612499999963,126.87484286665273 181.91662499999788,124.29238410470725 183.452625,123.50595803360011 192.93349999999867,121.27097224908954 195.08499999999702,119.78037438734583 196.91600000000082,118.11227427938707 199.14374999999936,116.71474150790016 212.90725000000126,115.05593607013247 214.4992499999993,115.54632464802461 215.55712499999953,117.25188353641033 220.20087499999877,120.27032740884749 221.25374999999872,122.5839609440207 221.02487500000012,124.21942954693554 220.7756250000006,124.95891205560383 221.20287499999844,125.50046851847111 222.9627500000014,126.52085578560565 224.6309999999972,127.05189153877956 228.25750000000144,127.52032572755684 229.86987499999668,128.347851724034 231.43137499999787,130.3925809397823 231.93487499999725,132.7172807921355 231.58399999999995,135.24379969374536 230.6378749999996,137.86257129181143 232.0061249999997,139.24932965831323 234.14749999999958,141.949179597632 235.7191249999967,144.59054161322337 235.37324999999973,145.77847907384194 232.0061249999997,149.693178319259 230.67350000000084,150.30992005275937 227.00637499999758,150.5897357724565 225.51599999999848,150.99918020455874 223.5832499999991,153.0197070992201 222.00150000000107,155.62454687367432 219.92112499999737,157.86590312597048 216.52350000000047,158.82327159118438 203.24837499999927,159.76483013664654 200.58324999999817,160.8821512144259 195.8427500000012,164.2586273223951 193.40137500000054,164.97187320075068 190.49199999999772,165.3750087067378 184.36824999999726,167.1680469535587 180.98587500000065,167.5760949692563 173.9972499999979,167.21959425331528 170.35049999999933,167.52962934371192 167.7564999999991,168.83127569684763 166.75950000000094,170.58179091302765 167.8073749999969,170.8657482482222 171.13374999999755,170.17384545921988 173.10725000000008,170.24097143929964 174.3686250000002,170.5559066523262 175.20274999999995,171.34062620185966 175.86399999999955,172.7755339925721 175.73674999999616,173.52378606746697 174.15499999999815,176.30953352249645 176.34212500000143,175.63380011917644 179.1090000000006,172.81675399354486 180.98587500000065,171.90844517386944 182.51675000000216,172.14590653501182 185.81262499999977,174.04496419437203 187.81662500000036,174.49889304111412 192.27737499999972,173.85919728274683 201.11212500000374,171.3199471161551 205.88812500000165,171.1135324709789 202.31250000000142,174.26166296794491 197.35849999999897,175.95361480929824 192.5876250000017,178.25868098994886 189.52562499999925,183.2312949411259 191.51437500000083,183.14382497628816 192.8826250000009,182.24233268090842 194.10325000000165,180.96458919999503 195.64949999999632,179.77406700491287 198.99625000000165,178.6865340928416 202.4752499999982,178.0421441234227 210.19112499999954,178.08851846736093 213.77700000000226,177.4543208014233 216.1369999999995,175.3655618732572 213.97024999999965,175.427551963927 211.21350000000012,175.05610774860668 208.97049999999754,174.18938875336175 208.3753749999985,172.7755339925721 210.1453749999999,171.1135324709789 212.9835000000015,170.9895783586358 218.27324999999752,171.90844517386944 222.73900000000094,173.2502423263923 224.71237499999808,173.30705738433375 225.51599999999848,171.51100359919957 226.41125000000108,170.0499964477196 230.10387499999965,167.66902500813518 230.6378749999996,165.8400881836052 229.6918749999996,164.33611723850657 226.49262499999818,162.39751535620047 225.51599999999848,160.63389197147194 225.77037499999867,158.2540599199287 227.00124999999943,156.52532418206118 228.3643750000014,155.19484289374265 229.01537499999972,154.04527509802864 229.86987499999668,153.2062002436386 235.37324999999973,149.693178319259 239.12687500000078,145.05743592387432 240.18487499999884,143.1635958247382 239.2082499999979,141.95951242264584 236.36000000000163,139.26490055824485 235.76487499999885,138.3351614945031 235.58687499999803,136.73518117897277 234.1321250000002,132.62897915002236 233.97962499999718,129.53941659889023 233.70500000000018,128.03553013617233 232.850500000002,127.3849931602847 231.4669999999991,127.01018840790425 229.89025000000134,126.07318896276763 227.22499999999994,123.81841759712034 229.11712499999777,123.56842581313339 233.69475000000017,125.12565896646072 244.18774999999692,126.53134652558839 250.8151249999996,126.13562660714115 260.4536250000006,124.30275125015345 266.9538749999977,120.85411314284528 275.7123750000028,119.14445692865007 280.6562499999993,116.30790777538755 284.57775000000026,115.07683459783527 286.3477500000016,114.27852938782462 288.16862500000076,112.90089524241114 289.80637500000097,111.30889958460801 292.40037499999994,108.06069853574496 292.217250000001,109.04785657204019 292.0087500000008,109.43958808335833 291.4645000000021,109.81550508821772 292.1970000000004,110.9016518051302 292.46649999999676,111.89354196486676 292.22749999999974,112.74441076361654 291.4645000000021,113.40187111532538 291.1593750000007,119.3112581080315 290.1625000000029,125.06308149816545 288.341625,130.4705645652191 285.56962500000026,135.33218571259778 281.4191250000004,140.10094001571423 272.6148749999994,147.95134485659577 268.3526249999972,152.74001881327922 266.9538749999977,154.94631899585175 266.1858750000023,157.1206698003458 265.8552500000019,159.60971645360945 265.78912500000126,162.76463063359557 265.4330000000018,165.3440189029563 264.507374999999,167.91708443696825 263.13912500000015,170.42166175985733 259.7517499999995,175.2418330815231 258.33262500000166,177.9751160141294 257.976625,180.83060535723138 259.3498750000004,183.66394011037323 259.72625000000045,184.92053929209163 259.319375000001,186.41354586939593 258.5005000000003,187.82380157178568 257.7222499999986,188.84271384197632 257.1729999999996,190.25232997381795 257.5391249999997,191.75926943670993 258.95825000000127,194.45836392013234 260.52987499999716,198.91794893318513 260.78424999999726,200.80753489476064 260.1230000000014,207.0108241041434 260.40787499999846,208.70266863655723 261.5217500000009,210.89118218093904 259.4007500000007,212.91490457552965 254.6196249999984,220.3421097410465 251.94425000000226,223.10866191183328 249.01462500000136,224.0339632465002 238.0486250000021,223.911352702101 229.2798749999983,224.99490188600765 225.45499999999853,226.42054290286376 223.58837499999726,226.48194547811602 221.95562499999733,226.9111160830305 221.25374999999872,228.53030507495532 220.5314999999992,229.80705915458714 218.82762499999842,229.85298803736566 215.2825000000013,228.91852159679502 217.367874999999,230.6954499166742 219.36162500000086,231.18550777234225 223.80712499999993,230.63422091220696 234.1321250000002,230.63422091220696 232.9521249999997,232.18091793534177 230.66337499999867,233.76804986080265 227.95237500000135,235.08430551480023 225.51599999999848,235.84936120392967 221.55899999999792,236.1757585442836 218.0697500000014,235.6096897205283 215.0078749999993,234.18635766587562 212.29174999999756,231.9971541215295 210.6183749999974,231.00183540556282 210.03849999999994,231.95124354686953 210.04362499999806,233.54345931910603 210.16062500000018,234.52313701735778 209.44349999999753,235.1148947872664 207.78537500000013,235.52294406291065 203.18737499999682,236.11459188663895 199.93212500000075,237.29255450764487 198.1722500000003,237.5628517196261 194.58137499999728,237.53227635994728 192.9030000000018,237.3078428902017 191.30587500000064,236.78776286245943 192.36887499999904,235.31886061300116 192.77075000000065,234.46182618833944 192.93349999999867,233.66597581325385 192.55199999999797,232.70658575441553 191.6923749999979,232.32892790983306 190.84299999999908,232.4207422199891 190.4513749999987,232.85458126498526 189.43412499999747,234.78329278306177 187.07412499999774,234.8444745769699 182.69474999999923,233.28324358813978 182.69474999999923,232.4258847784397 185.25824999999884,231.56838928728416 183.43237499999944,230.92517793814199 179.46500000000222,230.49632763002404 177.57299999999847,229.85298803736566 179.76512499999956,228.24436499032282 180.52799999999687,227.39637158775776 180.98587500000065,226.34394566013458 178.61050000000154,226.32347768752646 171.60162500000067,223.77843770206425 166.50524999999737,223.11381338541162 161.27649999999758,223.0013593637679 162.6904999999998,220.85360129685665 165.793125,219.60552159369138 172.45612499999766,217.84529672509035 172.59350000000072,217.5843198759194 172.74612499999907,217.0571708481067 172.9902500000017,216.47876933625446 173.38699999999895,216.0487645510098 177.65437499999936,215.18865166032577 179.22087499999708,215.73649256544462 180.8789999999982,216.60154963741456 182.17087499999894,216.6784116963379 182.69474999999923,214.8046012359427 178.88012499999826,213.56027541077367 155.3052499999989,216.0487645510098 156.4191249999988,214.26698516715328 160.7984999999998,209.41518289092573 162.13099999999827,208.318279809425 163.59075000000018,208.3643928037735 167.3393750000009,209.66118997340146 168.96187500000082,210.03024242820442 183.54924999999744,210.03024242820442 185.14125000000047,210.42999962477762 187.27749999999978,212.21305282311755 189.62225000000043,213.0122123818964 191.90599999999995,214.78924871479012 195.22224999999972,215.4907637670974 196.54974999999666,216.24842289836482 197.48062499999796,217.34383263144633 198.13675000000066,218.6282769431847 199.98300000000106,214.38478205747867 196.85499999999837,211.80839200635023 187.81662500000036,208.318279809425 187.01300000000117,207.29285624808682 185.85337499999912,204.79500754939232 185.25824999999884,204.01013258415384 183.87987499999787,203.42515266439358 180.86375000000166,203.29172946721542 169.84687499999836,201.5314431209527 167.32924999999872,200.5714677011797 168.0921249999998,197.65453039767885 167.36987499999776,195.12654683945948 166.17974999999885,194.12942058584247 164.41474999999778,198.33253934486862 161.68349999999734,199.18500977633653 158.31637499999732,198.85118164333568 155.3052499999989,197.90107755346736 155.3052499999989,197.03804975461668 157.2431249999989,195.98470492995688 159.05899999999778,194.24248134455684 159.66924999999924,192.36094085884446 157.94500000000124,190.92609378233726 156.38862500000195,190.94151477597495 155.7528750000002,191.9083982479881 155.44775000000007,193.03961992245883 154.87799999999854,193.59478141904714 153.68787499999715,193.80045705391825 144.7156249999997,196.90951792633314 142.2641249999969,197.171628682802 140.79412499999876,196.1748829534984 141.2213749999991,194.50472258969484 145.30574999999843,191.64097447744894 146.68912500000096,190.13918496211926 133.89212499999786,190.13918496211926 135.19424999999984,189.13076136618633 136.83199999999758,186.61949748258775 138.23575000000102,185.82664151627017 136.496249999999,184.44167678316097 133.80562499999886,184.70427186264362 130.72337499999705,185.53841616469737 127.83949999999955,185.82664151627017 128.44987499999885,183.31382679532658 126.17112499999841,181.62407513017723 128.77024999999676,180.56262760546736 131.44049999999848,180.55236921118131 137.47287499999996,181.73740026157697 139.47687500000055,181.03677192115902 138.61212499999985,177.84105727558813 127.0154999999982,171.82066298312697 123.64837499999814,169.30633444724413 125.21499999999996,170.07055355196434 126.64924999999656,170.20480726366878 127.8547499999986,169.64721352712792 128.77024999999676,168.35604777438272 130.52499999999782,169.20302577159003 132.47812499999813,169.4199209194863 133.65299999999675,168.90869931944337 133.04275000000155,167.5760949692563 131.05912499999815,166.80123419616513 128.5871249999978,166.3620161134869 127.03587499999914,165.42149307533333 127.83949999999955,163.15751387093513 127.2596249999996,161.94764083413276 127.73775000000023,159.60971645360945 127.06124999999786,158.82327159118438 125.60149999999845,158.6680033817953 124.58937499999786,159.29400804534572 123.73487499999966,160.13212645359442 122.72262500000123,160.63389197147194 121.41549999999894,160.6028746445462 119.90487499999803,159.93036452252153 117.33124999999998,159.43374596676767 112.68749999999702,157.59155641460728 111.19724999999828,156.64961442508553 111.07000000000114,155.21036730000952 112.84012500000286,154.01931056092644 116.82262499999875,152.74001881327922 115.15437499999919,150.70384848391757 110.01724999999779,147.2513681160367 107.81987499999947,145.3064210050419 106.95012500000097,142.59794009676546 108.02337499999561,140.29311738508704 109.51874999999872,138.40792287439496 109.91549999999722,136.98979047216795 112.39762499999846,135.24379969374536 112.47899999999935,133.15927814454756 111.90924999999906,131.03239643017292 112.40774999999813,129.1335625765231 113.08424999999801,128.94622506061273 115.11362499999733,129.24800784859752 115.89187499999905,129.1335625765231 116.37500000000121,128.67562899451048 116.4868749999977,128.22289970924407 116.5327499999977,127.7857364121104 116.82262499999875,127.3849931602847 118.61299999999855,126.03672401599016 119.56924999999733,125.03185647390501 120.24062500000032,123.81841759712034 119.15724999999728,123.07365577550308 118.60274999999979,122.03685768812034 118.22637499999597,120.81236139842434 116.66999999999665,117.28315427099318 115.9223749999984,116.62604569220707 114.18287500000012,116.03141226045125 119.40637499999896,110.47345625054055 119.93537499999863,108.35314236773928 115.89187499999905,108.06069853574496 118.32812499999778,105.9706300622704 121.83762500000115,106.86944618208207 125.2657499999999,108.46803578035457" /><polygon points="60.604124999999264,28.42848598153853 59.78012499999916,30.47514676436583 58.844249999997565,30.26839283853826 57.00312500000034,28.820888266100383 56.738624999997995,28.094445343205678 57.02849999999905,26.91698854747449 57.054000000001864,26.195498464078355 56.78437499999765,25.903693250727144 56.87087499999917,25.431398741621706 56.85562500000012,24.05169644682678 57.058999999995905,23.23432077147828 56.906375000000054,22.007888944336173 57.77112499999702,21.577787356220767 58.7731249999992,22.09283507481689 59.927624999999374,23.499662173806144 59.95825000000033,24.290519437538478 59.95825000000033,24.301084267933504 59.98362500000154,25.070564335462507 60.52787499999777,26.55091051321199 60.604124999999264,28.42848598153853" /><polygon points="126.88324999999703,104.65879695896348 124.94025000000136,105.07179024239099 123.41437499999891,104.5072081615649 123.09399999999727,103.02243689022464 122.39712499999644,101.88249425185802 120.74924999999783,101.64714979138239 119.44712499999832,101.31757288979026 118.48587500000177,100.89914527500531 115.34762499999657,100.73176499279549 114.77800000000038,99.71682864903511 115.53074999999927,97.92716731545573 117.32612500000185,96.56625551259327 120.04724999999885,96.2416382597583 124.2892499999968,96.71279639017678 125.71337499999868,97.0321102540185 127.68687499999746,97.88536361357183 128.92787499999665,98.64935466632977 129.24324999999675,99.40294851446725 127.83949999999955,101.47452294455383 127.57499999999972,103.20028185238425 127.73775000000023,104.1936111581901 126.88324999999703,104.65879695896348" /><polygon points="282.06512499999843,275.7195905831329 284.9133749999972,275.84102796992715 289.84199999999845,275.47658319094194 291.8561250000012,275.5828458325195 293.2956249999962,276.02330335098657 293.10237499999886,276.91928719072916 291.1542500000026,277.6177330580673 290.0199999999993,277.81512250204264 287.3954999999972,278.5135769746256 282.06000000000273,279.30283631883174 277.56887499999937,279.2724966684141 274.0033750000001,278.86264601420805 271.00762499999985,277.4608860219151 270.2954999999987,275.6183077244083 272.77762499999744,274.89931905077054 280.0713749999991,273.607935428407 283.0213750000009,274.0384724232042 283.6825000000002,275.1626358020858 281.8311250000017,275.5828458325195 282.06512499999843,275.7195905831329" /><polygon points="275.73787500000185,224.21284902282605 279.3184999999998,230.90987140624867 279.46100000000354,233.05361626420216 276.9636250000007,234.05369642235473 276.9636250000007,234.9975513861853 285.0456249999984,236.65516574462202 287.20224999999857,237.5628517196261 287.61424999999986,238.1135543790782 288.85024999999877,240.1830410022439 289.7657499999982,240.9779282540564 291.0932500000001,241.32955985006748 293.6110000000001,241.29387179295674 294.8824999999987,241.9104279814905 295.69637499999783,243.11766690389544 298.3717500000015,248.75329195305912 299.36862499999927,249.6233081738971 300.3451249999986,250.11164606613406 300.5537500000004,250.5541874976225 299.2261249999981,251.3120490466124 297.7511250000034,251.62226279938727 296.20499999999913,251.43416190941335 294.7858749999988,250.85431991663987 293.6821249999985,249.98962825175414 291.3678749999984,248.9364846810643 284.86262500000106,248.860207237114 282.1211249999993,248.28008819246872 279.5932500000009,247.22661038163778 276.97887500000104,246.5852675800017 271.3737499999999,246.188189704584 269.16637499999973,246.43764910371203 264.3343749999997,247.56257498352667 261.9845000000009,247.811845677368 249.49774999999727,247.811845677368 251.08475,248.99750585874648 256.22687499999927,249.94887168589764 257.33574999999763,250.884819734973 257.45775000000003,252.99013998245437 257.8647499999998,254.65746594213257 258.61749999999864,256.04992382141137 259.7363749999989,257.3557522690352 261.73025000000104,253.9154408931394 262.4524999999981,253.02062771699934 263.74949999999944,252.12579094619255 266.86737499999873,250.7729445566922 267.9608750000002,249.98962825175414 270.4176249999977,249.51140680243816 281.2309999999974,253.02062771699934 289.94887499999714,254.2305017148881 293.7024999999994,255.39951377223994 295.3505000000021,255.64854716531886 296.7237500000025,256.0296933546364 298.9413749999989,257.67573064417684 299.65337499999964,258.05673358451975 300.6096250000022,258.7220509813245 299.6432499999975,260.11358468784 298.1682500000016,261.362414526624 297.5273750000029,261.53507441409295 296.58637500000316,263.2404177548035 297.06962499999946,263.0830278611871 297.72062500000027,263.50430366230637 298.26487500000155,264.214586490632 298.3717500000015,264.94509765933026 297.63924999999944,265.7466884028388 294.7858749999988,267.26813674224957 290.691375000001,270.2640378312699 288.16349999999886,271.1508903792566 274.99525000000006,271.4043034425099 272.40125000000114,270.8873779937941 269.66987500000283,268.77395706165873 267.5183750000008,266.4313745268731 265.30587499999876,264.4885241809234 262.7983749999976,263.30127727531146 259.7363749999989,263.2404177548035 257.976625,263.4940777001849 257.30525000000074,263.6767703235296 256.3998749999998,264.09288736178615 257.7069999999996,264.8335137698527 259.3245000000017,265.5183157331569 261.19112500000045,265.9443875070882 263.2307500000023,265.8784470595943 263.2307500000023,266.6443785853446 252.05612499999873,270.12727945617814 252.05612499999873,270.9786623314385 255.9623749999994,270.6745412603175 259.29387500000195,269.54944331779 262.43725000000154,268.9259486854804 265.78912500000126,270.12727945617814 267.3811249999981,270.90767737281556 267.9608750000002,271.36370834129224 268.44924999999836,272.3567064667152 267.9253750000006,272.9545340346071 266.643625000002,273.53200600427 266.3078749999972,274.3321987027683 265.7279999999972,274.86895466819976 265.17875000000197,275.27910830545807 264.9346249999968,275.6486678960547 265.29062499999844,276.88383383560654 266.12987500000014,276.82312719970895 267.13700000000296,276.38783566835434 267.9608750000002,276.4991810808058 270.43787499999826,279.81895731531324 271.3737499999999,280.3197378121473 287.20224999999857,280.3197378121473 290.93562499999655,279.8087621957625 292.3902500000015,280.0009742625174 293.25487500000065,281.2453385295612 288.85024999999877,281.852250667058 283.5706249999999,281.9938081275708 278.61662500000125,282.79274910049475 275.2546249999993,285.41640684922356 273.6218749999994,284.3599658991587 271.95875000000046,284.0466582581382 270.2141249999978,284.21847036593533 268.3526249999972,284.6430700802328 270.0412499999989,284.6936272752936 271.57724999999976,285.09794361428465 274.4001250000011,286.34113569432924 270.80412499999994,289.8870721226928 270.06149999999946,291.42196381275977 277.2534999999993,290.97767170429023 280.50362500000097,291.3866054024144 283.7945000000007,293.04720883726577 286.1341249999996,295.41362183528014 288.45350000000025,298.8175872989026 289.0841250000002,301.6802885968845 286.3477500000016,302.42593794512266 288.4738750000024,303.82124743523144 292.6038749999998,307.567283184012 294.9638749999995,308.33722975256296 297.4408749999977,308.83537949463937 296.8457499999974,309.9272408121408 294.6688749999966,311.0993559439956 292.40037499999994,311.79340660691287 292.40037499999994,312.63826098907475 293.50412499999766,313.01541212540656 294.62824999999884,313.25674049486946 297.04925000000105,313.4076116102377 298.0563750000013,313.8097905214952 298.66675000000066,314.7046088608852 299.4296249999992,315.5992796575239 300.93512499999696,316.0112998773278 302.522125000001,315.3529912423286 303.92587500000076,314.10136703425064 305.54337499999656,313.3623877850298 307.76087499999886,314.2420841604589 307.51675000000125,316.25755841770143 310.01412500000026,316.9157573391384 316.3769999999981,316.9258828529307 314.6172500000017,319.708695211207 316.98737499999993,321.16989668725864 320.75125000000094,322.1789709701602 323.20287500000035,323.5942459630727 319.5916250000014,329.42241650931214 318.93037499999804,331.23681956851345 322.0686249999995,330.9512113525083 325.2779999999993,331.4673642846446 326.6005000000035,332.9053386672549 324.05225000000036,335.36950039324404 326.0410000000007,335.1842870270294 327.6787500000009,334.37801235780194 329.2351250000002,333.8921713803106 330.96450000000004,334.60337761145024 330.94412499999913,332.03851147948484 330.59825000000217,330.2244992361868 330.6439999999993,328.6804677508345 331.80874999999946,326.95555672154796 333.70087500000363,326.02256784285953 338.85324999999784,325.5611296644138 343.9446249999996,324.42727751275834 344.80925000000246,325.867115757222 344.01075000000014,327.7678624573554 339.61624999999924,329.3523164181138 337.96825000000024,330.9512113525083 336.98662500000273,333.1106973581774 336.93574999999873,335.36950039324404 338.2988750000007,334.28778978834185 339.86537499999844,333.83197675977203 343.7615000000006,333.761933509695 343.1867500000025,335.7150510600059 342.15424999999976,336.24576329807735 340.84199999999936,336.1556947561976 339.4178749999975,336.28587531071116 336.62037499999866,337.21698147275595 335.56250000000085,337.77756141545615 334.3010000000004,338.79856156379935 333.421125000001,337.05176113186445 332.4191250000013,335.8201393945201 331.2848750000017,335.6399867206519 330.033625,337.05176113186445 331.95124999999945,338.15801429960027 333.4771250000031,342.86049272292126 335.22675000000356,344.7503961856189 337.261250000001,343.29551986382694 344.63637499999976,347.1643798423469 348.0339999999992,347.2692473127893 343.98524999999734,345.1702856418618 342.4696249999999,343.77560691634136 342.9069999999999,342.0903848501566 343.83275000000185,341.81026273176565 344.9872499999995,342.18047810551263 346.78787500000186,343.00059000468946 350.2362499999987,340.9099393796947 351.9808749999976,340.24959937211884 354.68675000000053,340.0844711087516 357.1789999999989,340.5197202096833 358.2674999999989,341.7052900449292 358.9897499999984,342.9805587721883 362.69262499999957,343.99050803021436 364.32012499999723,345.5152144820214 362.5653749999999,347.9087232613735 359.35600000000005,348.68807513149136 355.6328750000009,348.9328579795513 352.3725000000042,349.7869338309622 352.3725000000042,350.55092241116415 359.238999999998,350.5559539486427 362.4483749999978,351.05528024673674 365.17462500000164,352.2933972866564 369.5285000000011,350.74567633607023 372.0106250000036,350.4610902769598 373.7907499999996,351.46474519554835 373.98412500000103,353.2916857361185 373.0482499999995,355.3725622592207 371.61387500000257,357.1983159832406 370.2915000000025,358.2306326896966 368.47062500000084,358.5746131312468 362.69262499999957,358.58956298251735 360.9123749999994,358.2306326896966 359.6204999999999,356.67454548534806 359.51362499999993,354.98337808379915 359.0253750000034,353.6710560802457 356.55850000000123,353.21686337762833 357.438500000001,357.622149581872 355.98887500000006,361.8496119905952 353.1303750000012,364.04168670310946 349.8091250000012,362.3428841835408 349.01049999999856,360.49398584907635 348.562875000001,356.4052247507667 348.0339999999992,354.8188186328285 346.6657499999991,353.42648604807675 344.6261249999998,351.9888939466041 340.34862500000094,349.7869338309622 344.6516250000026,358.41003951803543 345.3535000000012,362.62685059779227 342.13387499999885,364.0168359639887 340.03837499999895,363.0752400767349 338.39550000000065,361.2614968208527 337.3222499999997,359.27757940507115 336.93574999999873,357.7817221146858 336.1982499999989,356.0011573977198 332.81075000000163,352.82249577178106 331.80874999999946,350.55092241116415 330.96450000000004,350.55092241116415 330.42537499999946,354.74389461367156 327.49562500000195,354.4295949105331 323.823374999998,351.8641187260673 321.0310000000036,349.3273845093602 319.83575000000025,347.67899697730667 318.8387500000021,345.87510625003074 317.66899999999794,344.43551926759244 313.8645000000028,343.24059038860764 312.62337500000206,341.8253815819054 311.626499999998,340.1495147831539 310.3193749999982,338.79856156379935 309.1342500000008,339.5691354214667 307.8117500000004,339.7243191873141 306.45887500000094,339.4240309071048 305.19749999999715,338.79856156379935 306.66224999999673,337.171955429086 307.76087499999886,335.36950039324404 305.3703749999998,336.14560501789384 304.0581249999994,336.24576329807735 303.07137500000005,335.82518456792786 303.2392500000024,335.45970501760166 302.0489999999994,332.0585830470684 301.7082500000006,331.61760718127294 303.1323749999987,329.80345444104137 306.3672500000013,329.7182067612596 309.87687500000135,330.4951184749054 312.10462499999994,331.23681956851345 311.0517499999999,329.1617233739885 308.84937500000007,327.5773370718277 306.2248750000005,326.55928097955297 303.95637499999754,326.1981087045725 302.3796249999998,326.54424288605753 300.95037500000103,327.1611403384893 299.53137499999974,327.38680500542233 297.9546249999995,326.584426551094 294.6637499999997,323.4738743634946 294.10937500000136,323.17268701276987 292.7767500000025,320.61253685856764 289.6436249999992,319.15130877980476 283.0111250000009,317.6895638104445 279.87799999999766,316.438478459324 264.670124999997,308.46807887816533 262.8389999999991,307.06889321041325 262.4728750000015,305.88081096163637 262.4728750000015,304.3349121185563 262.2184999999976,303.000273057826 261.0944999999968,302.42593794512266 259.3599999999988,302.2949428822295 258.7802500000004,301.8515419527364 258.95825000000127,299.4678723413303 257.5900000000012,299.1805870513124 248.71962499999967,295.58011467667416 239.24899999999977,288.8770570879491 242.4838750000024,285.76503055360445 244.34537500000306,285.0676364634812 247.01062500000077,285.41640684922356 248.60775000000194,286.1440572662415 253.83637500000017,289.7254923132941 254.6196249999984,288.8770570879491 249.80299999999897,284.84020320397065 247.86512500000146,283.7938373138375 249.49774999999727,282.8686727972542 254.6196249999984,286.34113569432924 256.8525000000013,288.2205330987215 258.20037500000046,289.13969402737223 259.7363749999989,289.7254923132941 259.2380000000001,288.78619861934567 258.71412500000235,288.05381371929815 258.10375000000056,287.5032184368721 257.33574999999763,287.1141055888304 257.33574999999763,286.34113569432924 257.65112499999776,284.0516275931455 254.68074999999868,282.3376816227365 247.86512500000146,280.3197378121473 245.46437499999988,278.6046081952678 241.87349999999935,274.49423916255216 239.24899999999977,273.53200600427 241.7004999999988,278.01250473707614 242.43299999999837,280.28430675482986 241.3852500000028,281.2453385295612 238.74037499999977,282.21639010719514 236.21749999999793,286.0378778211683 233.27774999999858,286.34113569432924 232.24012499999893,285.78527413261065 228.07949999999812,282.8686727972542 227.8913749999989,282.5703151127086 227.43362500000168,281.5337017568961 227.22499999999994,281.2453385295612 226.30437500000235,280.89642332031207 224.16312499999907,280.35007158548325 223.389999999998,279.94030262774476 221.71150000000216,278.47303525449433 219.98724999999797,276.47890270170046 219.63637499999948,274.39293333085527 222.10824999999943,272.68102555109044 213.88887499999626,270.385722471789 211.4423749999975,268.77395706165873 209.1534999999999,266.6139677537051 208.20749999999984,265.45249474201034 207.21562499999985,262.9765189420957 207.68362499999833,262.89532630476424 208.8432500000004,262.0020019096304 210.32849999999883,261.48430000627206 213.8583749999994,262.1543090848752 214.89087499999843,262.0020019096304 216.05050000000048,261.2507565272538 217.5204999999986,261.0679817420569 219.05650000000077,261.2254304248701 220.39924999999803,261.53507441409295 225.08875000000063,264.22481108755153 227.44887499999825,264.8639346343781 229.01537499999972,263.2404177548035 227.55562500000033,262.8698831992681 226.31962499999892,262.1948487633007 225.3583749999986,261.1949890410325 224.7480000000018,259.83929999205554 232.4232499999979,264.09288736178615 232.28075000000044,262.91553103837487 231.8128749999986,261.9816690130353 231.00412499999752,261.26086198320013 229.86987499999668,260.7685420907674 229.86987499999668,259.83929999205554 231.5584999999984,259.3822942400925 233.7151249999986,258.29540847721114 235.4138749999975,256.92900166103436 235.76487499999885,255.64854716531886 233.8574999999982,254.99296764559676 227.46912499999883,255.97886709396948 225.13962499999843,255.18606526563568 221.12149999999755,252.50206285367742 216.3811250000009,251.95795345733325 206.6663749999996,252.23763804613654 207.20550000000017,250.96619340566477 207.59712500000055,250.46268191081612 205.44562499999725,250.92556922288802 200.85787500000018,251.42391303445936 198.98612499999948,252.23763804613654 197.43474999999796,250.44743082862252 195.47662499999987,250.65094171495443 193.3403749999981,251.6375105573061 191.30587500000064,252.23763804613654 188.89499999999936,251.83585246167124 186.95200000000122,250.74244410519265 186.3213749999976,249.08916137009862 187.81662500000036,247.0433595026218 185.38549999999597,246.43764910371203 182.7507499999989,244.93583903928646 181.0468750000006,243.40294287949763 181.44862499999942,242.68978719541963 183.4272500000013,242.06317875580788 182.57787499999873,240.59584096463738 179.27687499999925,237.5628517196261 182.23699999999954,236.77247300228998 185.69062499999734,237.4711251194418 189.25612499999914,238.65392749063443 192.55199999999797,239.27579684468344 203.3602499999995,239.19424635503725 206.6663749999996,238.4908064300281 207.62262499999963,237.98098992392363 209.73850000000047,236.44097313931866 211.0151250000009,235.84936120392967 213.1157499999989,235.6249828850972 219.15824999999884,236.78776286245943 241.8124999999994,235.61470387763592 243.60275000000135,234.52313701735778 244.9557499999986,232.94136995844224 252.910624999997,228.91852159679502 253.5312500000013,228.84195993651747 254.92987499999785,229.02068578646754 255.5453749999978,228.91852159679502 256.10487499999687,228.5201380192596 257.33574999999763,227.20227464206903 262.0048749999993,225.6489955555482 270.09712499999944,225.4957779871732 271.378874999998,225.05619514907676 272.5080000000008,224.19752336790094 273.71349999999904,223.55342948592238 275.2546249999993,223.77843770206425 275.73787500000185,224.21284902282605" /><circle class="earthquake" cx="237.74999999999898" cy="299.1793481856786" r="1.7640000000000002" /><circle class="earthquake" cx="366.63750000000107" cy="419.99258412726556" r="2.025" /><circle class="earthquake" cx="366.78750000000207" cy="416.053082664064" r="2.025" /><circle class="earthquake" cx="373.50000000000233" cy="426.54407635299884" r="1.9360000000000004" /><circle class="earthquake" cx="388.25000000000165" cy="423.26325219616746" r="2.1159999999999997" /><circle class="earthquake" cx="254.1374999999978" cy="310.2311422586305" r="2.025" /><circle class="earthquake" cx="211.3749999999984" cy="293.00627978996386" r="2.209" /><circle class="earthquake" cx="226.98749999999959" cy="286.03142005668997" r="1.7640000000000002" /><circle class="earthquake" cx="276.31249999999955" cy="329.34837403111965" r="1.9360000000000004" /><circle class="earthquake" cx="214.3000000000001" cy="287.5835455237835" r="1.7640000000000002" /><circle class="earthquake" cx="252.43749999999665" cy="275.83841510406575" r="1.521" /><circle class="earthquake" cx="283.04999999999876" cy="294.75479056980225" r="1.444" /><circle class="earthquake" cx="222.5874999999995" cy="288.55184623699586" r="2.025" /><circle class="earthquake" cx="225.12499999999864" cy="281.83224092898513" r="1.849" /><circle class="earthquake" cx="215.49999999999548" cy="341.4085530204141" r="2.025" /><circle class="earthquake" cx="237.37499999999778" cy="327.0070766077879" r="2.025" /><circle class="earthquake" cx="266.87499999999767" cy="310.09514290285983" r="1.849" /><circle class="earthquake" cx="242.12500000000145" cy="322.07472879713146" r="2.025" /><circle class="earthquake" cx="219.75000000000085" cy="174.76058199205875" r="0.28900000000000003" /><circle class="earthquake" cx="221.49999999999983" cy="174.76058199205875" r="0.361" /><circle class="earthquake" cx="218.75000000000057" cy="294.618402234502" r="2.4010000000000002" /><circle class="earthquake" cx="244.3749999999987" cy="324.7880743248579" r="1.849" /><circle class="earthquake" cx="236.4999999999983" cy="298.70855873207256" r="2.304" /><circle class="earthquake" cx="243.87499999999667" cy="288.5394332218283" r="2.1159999999999997" /><circle class="earthquake" cx="199.25000000000006" cy="269.8877571265891" r="1.6809999999999998" /><circle class="earthquake" cx="203.74999999999835" cy="255.79416517424312" r="2.1159999999999997" /><circle class="earthquake" cx="228.00000000000125" cy="290.64923686228013" r="1.7640000000000002" /><circle class="earthquake" cx="185.374999999999" cy="254.42025388859116" r="2.025" /><circle class="earthquake" cx="271.7499999999996" cy="330.08752159516166" r="1.6" /><circle class="earthquake" cx="418.2500000000035" cy="400.096465834277" r="2.209" /><circle class="earthquake" cx="174.25000000000102" cy="278.8485941513421" r="2.209" /><circle class="earthquake" cx="245.87500000000105" cy="292.5101455150324" r="2.601" /><circle class="earthquake" cx="172.12499999999957" cy="274.1211156688998" r="1.6809999999999998" /><circle class="earthquake" cx="193.62500000000065" cy="268.26824265398557" r="1.6809999999999998" /><circle class="earthquake" cx="304.87500000000074" cy="350.98840336516355" r="1.7640000000000002" /><circle class="earthquake" cx="312.1250000000008" cy="352.8287519037357" r="1.849" /><circle class="earthquake" cx="116.37500000000121" cy="298.2129466762573" r="2.025" /><circle class="earthquake" cx="137.12500000000114" cy="295.8581698621306" r="1.6809999999999998" /><circle class="earthquake" cx="337.0000000000016" cy="341.16269401587914" r="2.209" /><circle class="earthquake" cx="197.6249999999969" cy="314.7913278530385" r="2.304" /><circle class="earthquake" cx="287.25000000000006" cy="323.5549034898901" r="1.6" /><circle class="earthquake" cx="180.37499999999994" cy="353.0740847475813" r="2.601" /><circle class="earthquake" cx="158.75000000000057" cy="416.0045788716649" r="1.7640000000000002" /><circle class="earthquake" cx="337.1250000000024" cy="336.735331100562" r="1.6" /><circle class="earthquake" cx="276.62500000000034" cy="323.92488413895285" r="1.6" /><circle class="earthquake" cx="300.37499999999994" cy="317.0144185529374" r="1.6" /><circle class="earthquake" cx="277.9999999999994" cy="286.30462643287433" r="2.025" /><circle class="earthquake" cx="291.625" cy="295.8581698621306" r="1.849" /><circle class="earthquake" cx="208.50000000000202" cy="332.5506211230654" r="2.025" /><circle class="earthquake" cx="204.9999999999978" cy="311.9493858248879" r="1.6" /><circle class="earthquake" cx="150.74999999999557" cy="340.05619100778904" r="2.1159999999999997" /><circle class="earthquake" cx="169.12500000000114" cy="313.8029951193057" r="1.6" /><circle class="earthquake" cx="248.12500000000207" cy="315.16190622054154" r="2.025" /><circle class="earthquake" cx="222.6249999999985" cy="352.95141970643874" r="2.304" /><circle class="earthquake" cx="207.87499999999793" cy="363.85781303719176" r="2.5" /><circle class="earthquake" cx="257.2499999999982" cy="355.772017303403" r="2.025" /><circle class="earthquake" cx="393.12500000000364" cy="419.2776231171815" r="1.849" /><circle class="earthquake" cx="178.7499999999993" cy="281.2107836281649" r="1.9360000000000004" /><circle class="earthquake" cx="226.37500000000057" cy="328.36268754007983" r="2.1159999999999997" /><circle class="earthquake" cx="246.9999999999997" cy="311.7021900571077" r="2.704" /><circle class="earthquake" cx="128.37499999999872" cy="298.9563477555632" r="1.6" /><circle class="earthquake" cx="181.1250000000011" cy="334.39721369371193" r="2.209" /><circle class="earthquake" cx="164.12499999999707" cy="329.5947677221098" r="1.6809999999999998" /><circle class="earthquake" cx="197.50000000000108" cy="330.2107030833598" r="1.6809999999999998" /><circle class="earthquake" cx="166.62499999999721" cy="280.9621807051806" r="1.6" /><circle class="earthquake" cx="221.62499999999815" cy="342.63768145975547" r="2.601" /><circle class="earthquake" cx="274.8750000000026" cy="355.40419604652493" r="2.5" /><circle class="earthquake" cx="204.0" cy="350.37481567150485" r="1.7640000000000002" /><circle class="earthquake" cx="268.24999999999915" cy="346.2005851438155" r="1.6809999999999998" /><circle class="earthquake" cx="235.37499999999963" cy="352.09268708555294" r="2.809" /><circle class="earthquake" cx="262.2500000000023" cy="334.52029756994625" r="3.8440000000000007" /><circle class="earthquake" cx="198.12500000000145" cy="352.95141970643874" r="1.6809999999999998" /><circle class="earthquake" cx="291.625" cy="322.07472879713146" r="1.6809999999999998" /><circle class="earthquake" cx="221.49999999999983" cy="316.89093740225644" r="1.6" /><circle class="earthquake" cx="199.25000000000006" cy="302.79562904868294" r="1.6" /><circle class="earthquake" cx="213.24999999999818" cy="307.1270348828864" r="1.849" /><circle class="earthquake" cx="313.62499999999693" cy="332.79686970535636" r="2.4010000000000002" /><circle class="earthquake" cx="195.6249999999988" cy="311.45498302351365" r="1.849" /><circle class="earthquake" cx="164.37499999999747" cy="310.46604220437064" r="1.7640000000000002" /><circle class="earthquake" cx="270.6249999999972" cy="323.92488413895285" r="1.9360000000000004" /><circle class="earthquake" cx="250.6249999999985" cy="328.23946415669633" r="1.6" /><circle class="earthquake" cx="263.37499999999716" cy="358.9587622862622" r="1.9360000000000004" /><circle class="earthquake" cx="262.87500000000136" cy="346.93744659899266" r="1.6809999999999998" /><circle class="earthquake" cx="272.3750000000025" cy="331.9349508642323" r="1.6" /><circle class="earthquake" cx="225.87499999999605" cy="351.8473100462894" r="1.6" /><circle class="earthquake" cx="232.37500000000122" cy="368.9970857865051" r="1.6" /><circle class="earthquake" cx="215.74999999999835" cy="380.96994288172766" r="1.6" /><circle class="earthquake" cx="280.3749999999975" cy="377.6739167186878" r="1.6" /><circle class="earthquake" cx="244.74999999999991" cy="301.9289323299244" r="1.6" /><circle class="earthquake" cx="178.24999999999727" cy="308.36394400826055" r="1.9360000000000004" /><circle class="earthquake" cx="352.2500000000029" cy="385.11766904626415" r="2.5" /><circle class="earthquake" cx="245.12499999999986" cy="324.41815247063175" r="2.1159999999999997" /><circle class="earthquake" cx="291.24999999999886" cy="329.4715722729552" r="1.849" /><circle class="earthquake" cx="317.8750000000023" cy="324.9113760115201" r="1.9360000000000004" /><circle class="earthquake" cx="276.74999999999864" cy="335.3818067057115" r="1.6" /><circle class="earthquake" cx="200.37499999999872" cy="262.90792309200475" r="1.7640000000000002" /><circle class="earthquake" cx="229.75000000000023" cy="319.3600268320944" r="1.6809999999999998" /><circle class="earthquake" cx="144.49999999999955" cy="351.6019219549386" r="1.6809999999999998" /><circle class="earthquake" cx="189.1249999999999" cy="330.58023079839927" r="1.6" /><circle class="earthquake" cx="245.374999999999" cy="315.16190622054154" r="2.5" /><circle class="earthquake" cx="234.62500000000222" cy="333.9048503258483" r="1.849" /><circle class="earthquake" cx="320.4999999999995" cy="344.48085382059264" r="1.6" /><circle class="earthquake" cx="316.25000000000165" cy="266.39896825764697" r="1.6809999999999998" /><circle class="earthquake" cx="212.74999999999991" cy="307.3744392834808" r="2.209" /><circle class="earthquake" cx="308.1249999999983" cy="283.8204244459008" r="1.6809999999999998" /><circle class="earthquake" cx="192.0" cy="289.78059380422104" r="2.209" /><circle class="earthquake" cx="224.7499999999974" cy="316.2734895031225" r="1.6809999999999998" /><circle class="earthquake" cx="202.9999999999972" cy="298.8324546607103" r="1.7640000000000002" /><circle class="earthquake" cx="253.74999999999775" cy="331.3192108703" r="2.1159999999999997" /><circle class="earthquake" cx="383.62499999999875" cy="389.0185394463306" r="1.6" /><circle class="earthquake" cx="199.25000000000006" cy="299.6996468244484" r="2.209" /><circle class="earthquake" cx="234.8749999999976" cy="329.96433731510416" r="2.1159999999999997" /><circle class="earthquake" cx="228.12499999999707" cy="337.4734751860833" r="2.1159999999999997" /><circle class="earthquake" cx="190.2499999999985" cy="299.6996468244484" r="2.704" /><circle class="earthquake" cx="239.7499999999996" cy="343.25214159945057" r="3.1359999999999997" /><circle class="earthquake" cx="166.62499999999721" cy="276.4853718861186" r="2.9160000000000004" /><circle class="earthquake" cx="214.62500000000347" cy="268.26824265398557" r="2.4010000000000002" /><circle class="earthquake" cx="203.2499999999988" cy="321.33449013053587" r="2.704" /><circle class="earthquake" cx="174.7499999999968" cy="296.3539974450863" r="3.969" /><circle class="earthquake" cx="190.87499999999764" cy="301.5574484382168" r="1.849" /><circle class="earthquake" cx="255.12499999999926" cy="307.9929008981053" r="2.025" /><circle class="earthquake" cx="169.6249999999994" cy="306.1373043629675" r="1.6" /><circle class="earthquake" cx="254.00000000000063" cy="284.565804854362" r="1.849" /><circle class="earthquake" cx="305.1249999999999" cy="315.2854267191972" r="2.025" /><circle class="earthquake" cx="179.37499999999966" cy="281.9565238179414" r="2.209" /><circle class="earthquake" cx="163.87499999999793" cy="295.2383215314354" r="1.9360000000000004" /><circle class="earthquake" cx="217.49999999999983" cy="326.8838224777769" r="1.9360000000000004" /><circle class="earthquake" cx="197.24999999999946" cy="341.7773207014457" r="1.9360000000000004" /><circle class="earthquake" cx="327.62500000000125" cy="326.7605655516305" r="1.6" /><circle class="earthquake" cx="132.24999999999915" cy="300.31898481663575" r="1.6" /><circle class="earthquake" cx="244.12499999999957" cy="271.25773625571935" r="1.849" /><circle class="earthquake" cx="239.12499999999926" cy="317.6317821697404" r="1.6" /><circle class="earthquake" cx="229.87499999999855" cy="327.62330532158956" r="1.9360000000000004" /><circle class="earthquake" cx="220.74999999999866" cy="304.52860676263595" r="1.7640000000000002" /><circle class="earthquake" cx="318.6249999999997" cy="306.38475393324285" r="1.6" /><circle class="earthquake" cx="209.12499999999864" cy="296.23004480547604" r="1.7640000000000002" /><circle class="earthquake" cx="266.50000000000017" cy="326.0209652667299" r="2.601" /><circle class="earthquake" cx="189.37499999999528" cy="373.8871366795617" r="1.7640000000000002" /><circle class="earthquake" cx="215.25000000000009" cy="322.444810293693" r="1.6809999999999998" /><circle class="earthquake" cx="190.75000000000307" cy="302.30039075514094" r="1.6" /><circle class="earthquake" cx="245.00000000000156" cy="317.1378968942928" r="1.6" /><circle class="earthquake" cx="193.75000000000148" cy="300.0712581162803" r="1.6" /><circle class="earthquake" cx="203.62500000000003" cy="335.13567516490485" r="2.601" /><circle class="earthquake" cx="233.2500000000007" cy="324.2948395872636" r="2.704" /><circle class="earthquake" cx="220.74999999999866" cy="304.52860676263595" r="1.6809999999999998" /><circle class="earthquake" cx="197.50000000000108" cy="330.2107030833598" r="1.849" /><circle class="earthquake" cx="257.2499999999982" cy="327.62330532158956" r="1.6" /><circle class="earthquake" cx="221.1250000000024" cy="319.8537099787743" r="1.849" /><circle class="earthquake" cx="185.374999999999" cy="320.1005347182944" r="2.601" /><circle class="earthquake" cx="237.37499999999778" cy="378.5286329349894" r="1.6" /><circle class="earthquake" cx="347.6250000000013" cy="334.1510375826946" r="1.6809999999999998" /><circle class="earthquake" cx="271.00000000000097" cy="342.51478110688424" r="2.1159999999999997" /><circle class="earthquake" cx="166.7499999999993" cy="280.09198043792736" r="2.025" /><circle class="earthquake" cx="203.62500000000003" cy="335.13567516490485" r="1.7640000000000002" /><circle class="earthquake" cx="208.24999999999912" cy="279.22164006915534" r="1.9360000000000004" /><circle class="earthquake" cx="298.2499999999998" cy="263.90559502105975" r="1.6809999999999998" /><circle class="earthquake" cx="218.6249999999985" cy="261.5358229275901" r="2.304" /><circle class="earthquake" cx="219.9999999999975" cy="368.9970857865051" r="1.7640000000000002" /><circle class="earthquake" cx="203.62500000000003" cy="335.13567516490485" r="2.1159999999999997" /><circle class="earthquake" cx="215.87500000000043" cy="369.3639915734781" r="1.6809999999999998" /><circle class="earthquake" cx="350.2499999999985" cy="312.1965703281819" r="1.9360000000000004" /><circle class="earthquake" cx="248.75000000000117" cy="349.5156767672957" r="2.809" /><circle class="earthquake" cx="261.8750000000011" cy="344.7265629865656" r="1.7640000000000002" /><circle class="earthquake" cx="238.12499999999895" cy="307.74552471774473" r="1.6809999999999998" /><circle class="earthquake" cx="159.87499999999918" cy="294.4944098573194" r="1.9360000000000004" /><circle class="earthquake" cx="206.99999999999844" cy="359.8164139239192" r="1.849" /><circle class="earthquake" cx="240.7499999999974" cy="367.77388834042523" r="1.849" /><circle class="earthquake" cx="289.75000000000273" cy="328.73234092591713" r="1.7640000000000002" /><circle class="earthquake" cx="171.12500000000176" cy="374.3759009996158" r="1.6" /><circle class="earthquake" cx="243.12499999999926" cy="300.19512288243584" r="1.6" /><circle class="earthquake" cx="343.6249999999988" cy="382.3121986819086" r="1.6" /><circle class="earthquake" cx="304.87500000000074" cy="340.1791468987514" r="2.704" /><circle class="earthquake" cx="180.6249999999991" cy="284.0688959968106" r="2.4010000000000002" /><circle class="earthquake" cx="218.87500000000136" cy="295.9821310141649" r="1.9360000000000004" /><circle class="earthquake" cx="208.74999999999744" cy="359.0812922084705" r="2.4010000000000002" /><circle class="earthquake" cx="257.2499999999982" cy="335.13567516490485" r="1.6" /><circle class="earthquake" cx="272.3750000000025" cy="382.19018904610755" r="1.9360000000000004" /><circle class="earthquake" cx="203.62500000000003" cy="363.36810593197515" r="1.6" /><circle class="earthquake" cx="302.6249999999997" cy="340.1791468987514" r="1.6" /><circle class="earthquake" cx="130.87499999999764" cy="368.507839702928" r="1.6" /><circle class="earthquake" cx="281.749999999999" cy="296.47794724755784" r="1.6" /><circle class="earthquake" cx="330.0000000000006" cy="338.2115191180804" r="2.704" /><circle class="earthquake" cx="191.50000000000173" cy="327.3768222226665" r="1.9360000000000004" /><circle class="earthquake" cx="176.49999999999827" cy="294.24641658382393" r="1.6809999999999998" /><circle class="earthquake" cx="154.00000000000063" cy="287.91874615137283" r="1.6809999999999998" /><circle class="earthquake" cx="159.9999999999975" cy="279.47032304541017" r="2.025" /><circle class="earthquake" cx="318.6249999999997" cy="322.1980920983208" r="1.7640000000000002" /><circle class="earthquake" cx="181.1250000000011" cy="302.5480155594614" r="1.6" /><circle class="earthquake" cx="251.50000000000045" cy="386.21507008740326" r="1.6809999999999998" /><circle class="earthquake" cx="288.49999999999704" cy="330.58023079839927" r="1.6" /><circle class="earthquake" cx="326.625000000001" cy="272.25386648341794" r="1.7640000000000002" /><circle class="earthquake" cx="334.6249999999997" cy="278.4755224853449" r="1.7640000000000002" /><circle class="earthquake" cx="164.62499999999912" cy="303.04323122414223" r="1.9360000000000004" /><circle class="earthquake" cx="249.12499999999864" cy="328.60912592452803" r="1.849" /><circle class="earthquake" cx="276.2500000000004" cy="319.6068740171472" r="1.849" /><circle class="earthquake" cx="134.12499999999895" cy="300.93825201425966" r="1.7640000000000002" /><circle class="earthquake" cx="240.99999999999906" cy="319.48345182763217" r="1.849" /><circle class="earthquake" cx="253.37499999999778" cy="335.9970868262356" r="1.849" /><circle class="earthquake" cx="140.87500000000074" cy="311.8257893491443" r="1.9360000000000004" /><circle class="earthquake" cx="228.5000000000008" cy="325.65112736315234" r="2.025" /><circle class="earthquake" cx="210.49999999999892" cy="288.787688114738" r="1.849" /><circle class="earthquake" cx="254.37499999999807" cy="300.6905536292223" r="1.6809999999999998" /><circle class="earthquake" cx="230.25000000000225" cy="292.63418334686" r="1.6809999999999998" /><circle class="earthquake" cx="262.6249999999985" cy="294.74239177219687" r="1.6809999999999998" /><circle class="earthquake" cx="212.6249999999991" cy="311.8257893491443" r="2.809" /><circle class="earthquake" cx="218.37499999999935" cy="293.00627978996386" r="2.209" /><circle class="earthquake" cx="200.62499999999787" cy="288.787688114738" r="2.601" /><circle class="earthquake" cx="188.74999999999866" cy="302.5480155594614" r="2.704" /><circle class="earthquake" cx="254.74999999999932" cy="308.48761940287477" r="3.0250000000000004" /><circle class="earthquake" cx="246.74999999999807" cy="316.14999149299155" r="2.1159999999999997" /><circle class="earthquake" cx="225.12499999999864" cy="270.13687009267403" r="1.7640000000000002" /><circle class="earthquake" cx="252.37499999999997" cy="329.34837403111965" r="1.849" /><circle class="earthquake" cx="237.37499999999778" cy="282.2050810259922" r="6.084" /><circle class="earthquake" cx="24.624999999997854" cy="116.37520283865467" r="1.7640000000000002" /><circle class="earthquake" cx="410.3749999999993" cy="410.0596181120677" r="2.601" /><circle class="earthquake" cx="332.75000000000244" cy="384.2639826187732" r="2.4010000000000002" /><circle class="earthquake" cx="221.25000000000068" cy="312.9380562643899" r="1.6" /><circle class="earthquake" cx="243.62500000000128" cy="374.1315243071426" r="2.1159999999999997" /><circle class="earthquake" cx="327.8750000000017" cy="389.3841034597794" r="1.6809999999999998" /><circle class="earthquake" cx="236.1250000000008" cy="305.02364149254174" r="1.6" /><circle class="earthquake" cx="292.2500000000004" cy="352.09268708555294" r="2.1159999999999997" /><circle class="earthquake" cx="337.749999999999" cy="346.93744659899266" r="2.1159999999999997" /><circle class="earthquake" cx="326.8750000000001" cy="358.9587622862622" r="2.209" /><circle class="earthquake" cx="302.8749999999989" cy="382.5562097843251" r="2.025" /><circle class="earthquake" cx="303.4999999999992" cy="366.7951329606192" r="3.364" /><circle class="earthquake" cx="325.6250000000007" cy="364.2250645196857" r="4.356" /><circle class="earthquake" cx="156.99999999999906" cy="2.750983984995912" r="0.7839999999999999" /><circle class="earthquake" cx="168.12499999999957" cy="9.164355739993994" r="0.676" /><circle class="earthquake" cx="167.24999999999756" cy="7.856139270606604" r="0.676" /><circle class="earthquake" cx="151.87500000000043" cy="9.295159497732755" r="0.7839999999999999" /><circle class="earthquake" cx="138.62499999999972" cy="3.9295366592579626" r="0.7839999999999999" /><circle class="earthquake" cx="186.49999999999892" cy="6.547597401920825" r="0.625" /><circle class="earthquake" cx="151.3749999999984" cy="7.201909023787778" r="1.7640000000000002" /><circle class="earthquake" cx="168.62499999999912" cy="11.779813287175955" r="1.0240000000000002" /><circle class="earthquake" cx="324.9999999999978" cy="155.3273078925422" r="1.6" /><circle class="earthquake" cx="186.49999999999892" cy="347.7969922866592" r="1.6" /><circle class="earthquake" cx="320.25000000000284" cy="337.71950095651096" r="1.7640000000000002" /><circle class="earthquake" cx="282.74999999999926" cy="343.1292551209257" r="1.6" /><circle class="earthquake" cx="287.0000000000009" cy="435.4928201404199" r="1.6809999999999998" /><circle class="earthquake" cx="325.6250000000007" cy="439.2372940091117" r="1.444" /><circle class="earthquake" cx="352.1250000000021" cy="421.9431058630532" r="3.7209999999999996" /><circle class="earthquake" cx="369.49999999999983" cy="376.9411963839432" r="1.1560000000000001" /><circle class="earthquake" cx="416.6249999999991" cy="411.51612273467674" r="1.521" /><circle class="earthquake" cx="281.749999999999" cy="401.79877468138807" r="1.2960000000000003" /><circle class="earthquake" cx="385.12499999999864" cy="420.36820429567393" r="0.9610000000000002" /><circle class="earthquake" cx="391.62500000000125" cy="418.3080356996474" r="0.0" /><circle class="earthquake" cx="407.87500000000296" cy="410.9092928181025" r="1.6809999999999998" /><circle class="earthquake" cx="305.7500000000002" cy="366.7951329606192" r="3.364" /><circle class="earthquake" cx="210.62500000000097" cy="297.3455164389974" r="1.3690000000000002" /><circle class="earthquake" cx="218.87500000000136" cy="70.02855430727914" r="0.7839999999999999" /><circle class="earthquake" cx="44.625000000000355" cy="142.97011898585816" r="1.9360000000000004" /><style>
    polygon { fill: #222222; }
    .earthquake { fill: firebrick; }
    </style></svg>