<svg height="500" width="500" xmlns="http://www.w3.org/2000/svg"><polygon points="439.0458936177829,428.07150326968167 439.9747130311141,428.3270744777578 441.06556949334106,426.38826428424386 441.9625602844498,428.5951033597785 442.1188102400066,431.06926013426516 441.62401856000673,433.3246062977675 440.58235192889373,434.84441576346865 436.16394915556,433.8104792627503 436.6211250488945,431.1564955567125 435.5389491200057,430.17192399146 433.92436579556556,429.69828816219797 432.76985194667503,428.576404012832 432.41973617778126,425.90192740760205 432.8132546844493,423.2265305937842 433.6755232000108,421.0930367221814 434.7114028088946,420.10718960315177 434.2889491200047,418.52832593204835 434.2368657777868,417.0302929620249 434.55804636445095,415.7879547881659 434.7114028088946,414.9700258276486 436.36360192000865,412.422030428717 437.0783010133394,412.0847331837528 438.235708373341,416.11260512641275 438.3572361955643,418.92151179063876 438.1517963377853,423.8253007924279 438.39774542222756,426.35085492963145 439.0458936177829,428.07150326968167" /><polygon points="428.8838565688991,420.10718960315177 428.1662639644523,420.7810733716875 427.5817732266731,420.4067006645228 427.1535324444507,420.43789914295155 426.89890282667375,422.2908597430656 427.13617137778783,422.70256878933105 428.39485191111567,426.38826428424386 428.95040746667024,427.142649846916 429.5493658311173,427.76605363991393 430.8254075022241,428.576404012832 430.8254075022241,429.62350080798774 429.8039954488992,428.8755889339626 429.0169583644527,428.9503833275156 428.2183473066752,429.37420484163215 427.1622130488936,429.62350080798774 426.19867136000596,429.2682515901183 425.59971299555957,428.4081074075427 425.1136019200025,427.34214446798137 424.5146435555611,426.38826428424386 423.6813102222271,425.4841521896375 423.3283010133427,425.2347234733033 421.81788430222514,425.43426705595823 421.0337408000072,425.20978022280076 420.05862506667313,424.61111666658877 419.1095510044576,423.76293090196424 418.4266806044505,422.82732478199546 417.72644913778333,421.3301205233263 417.3502916977832,420.17582870545516 416.48802318222874,415.51324022096634 415.9642963911182,410.9228189523029 415.9498287644531,410.1543608097679 415.7067731911141,407.0235134068209 417.06672689778657,404.6042093805247 419.15006023112085,403.76008858814924 421.07135651556223,405.44198662200057 421.66163434667607,407.21102483826144 422.88269916445176,409.29209777896705 424.2252917333424,411.0040337567865 426.58061582223326,412.5531976307245 428.02737507555906,416.1375775964708 429.92262968889395,417.3861019611138 429.7576991288963,418.3348462882626 428.8838565688991,420.10718960315177" /><polygon points="405.09334727111724,400.6892151221564 405.79357873778366,402.39054163317735 406.62401856000656,403.9539318245805 407.3850139733416,404.6042093805247 407.92899541333725,404.89181478062414 408.2009861688931,405.1106377104422 408.3977454222307,406.64222620391195 407.85665749334044,408.18601146425846 406.7947361422256,407.3047789316421 406.1002916977848,405.54201373023045 405.19751395555943,403.87264335483053 404.3931158044479,402.06531694337446 404.2976297244486,401.58370908790783 404.6766806044538,402.30298253451986 404.7287639466717,401.5524347425899 404.2542269155618,399.70077305768825 404.3352454400086,399.4004619310415 405.09334727111724,400.6892151221564" /><polygon points="438.44404174222547,390.1288902425547 446.40700472889847,396.9474855416694 446.04820842667294,398.430627841494 445.59681948444944,399.15019379912206 442.52390286222646,402.290473879406 442.23455096889734,403.1972902559338 442.1708935822309,404.2478140136682 441.91915747555936,405.1106377104422 441.06556949334106,405.44198662200057 440.3421898666764,404.89181478062414 439.61302321778675,403.6287726807757 437.87112504889546,399.2190183253074 436.87575466667636,394.97578131919954 436.6963565511199,393.3166572759319 436.3838565689001,392.0392028638681 435.7038796800047,391.5006050226018 435.02390286222834,391.8763748639752 434.7114028088946,393.3166572759319 434.82135651555893,395.0133421825878 435.009435235564,395.9147506078823 435.04415744000795,396.6846206626542 434.7114028088946,397.9988562396569 438.1517963377853,406.57971831502743 437.26637966222836,407.80478122419845 436.33177322667575,408.3797441599444 434.2252917333383,408.579721209985 433.07367139556374,407.9547757222416 432.5007547022281,406.44219921770133 432.18246762666934,404.679237857394 431.79762972444917,403.2410649581806 430.5794584177818,401.52741529850084 429.7490185955589,400.9081566444885 429.3670741333394,401.765097373383 429.3120972800054,403.87264335483053 429.07193521778095,406.1296465266001 428.54242133333787,407.27977787916814 427.6483241244485,406.0108732457134 426.75422691556264,404.0164608725263 426.4475139555614,402.76578398136564 426.45908800000996,401.2396851214248 426.8468194844509,400.31387213067705 428.53663431111573,397.5295119451537 429.12691207111635,396.9474855416694 429.9139491555614,396.4217468693952 433.36012970667355,390.1664747625152 434.167421368894,389.7091846899201 435.6836250311204,389.5964240805146 438.44404174222547,390.1288902425547" /><polygon points="410.52737507556145,381.28520847395055 411.2333935644507,381.93739109273804 412.7438102755626,381.93739109273804 413.95040746667104,382.38259951001146 414.95735189334016,382.81524234216744 415.35955100445676,384.77123877889596 415.0586250666713,385.8618682795359 414.1500602311197,386.51993248146863 412.33871765334055,386.08749662686694 411.2333935644507,385.8618682795359 410.0239028622241,385.4293956723122 408.2125602844521,383.47356553157397 407.60492138667314,382.81524234216744 406.5024908088944,381.5109702444001 406.1986713600071,380.41972754816453 406.1986713600071,377.7913332783263 406.1986713600071,376.4799388111584 405.39137969778665,375.1745983500935 405.39137969778665,374.08246138948545 406.1002916977848,373.4233386783034 407.10144917334435,373.64932997124964 407.9087408355633,374.08246138948545 409.41915747556266,376.05321710424886 410.4261019022303,377.5717372108553 410.6257546666711,379.5416043840021 410.52737507556145,381.28520847395055" /><polygon points="422.0030695111163,381.06571153311313 421.10029169778403,381.93739109273804 419.78663431112295,381.5109702444001 418.58293063111773,381.5109702444001 417.07251392000586,381.7241835280559 416.1639491555647,380.84620852126045 415.15700472889705,379.9744060497667 413.84913429333994,378.4500839338888 413.84913429333994,376.92546146538825 413.84913429333994,375.83357169426637 413.84913429333994,374.7415279343674 413.5482084266705,373.64932997124964 412.9434630400034,372.99017034358025 412.5412639288925,372.5569777446956 412.4399908266717,371.0186339979182 413.84913429333994,371.4644711944471 415.56209728000863,373.64932997124964 418.2762176711165,375.83357169426637 421.901796337783,376.26658097708594 424.5204306488937,376.6995658699841 425.2206621155608,377.7913332783263 425.32482880001083,378.4500839338888 424.5204306488937,378.6633815633402 423.3109398755616,379.3283308074008 422.8074676622313,379.7548720828843 422.0030695111163,381.06571153311313" /><polygon points="392.55862506667256,361.90787716702744 397.6801528177859,369.5867573563853 396.6761019022279,369.62444162092413 395.70677319111314,369.1282495222278 394.8155694933419,368.1797429771397 394.0372130133383,366.90441505268313 393.585824142226,366.4457482290097 393.16626396445145,366.6468109988118 392.8653380266717,367.37561986869594 392.7785324800034,368.44357775868275 393.06209728000925,369.0340323149327 394.76637966222864,371.6967987542473 402.0927685688925,380.03085666990853 401.1465880177859,382.81524234216744 399.3497129955614,383.1412761470858 395.73570837334273,381.08452590181435 396.2276065422294,382.30735484334235 397.8595510044521,385.56102030710804 397.92320839111784,386.914744223217 397.01464355556055,388.06146398918884 395.5505232355641,389.09524609268385 394.0516806400083,389.5838950567878 393.0447361422288,389.0701862496785 392.1477454222305,387.7607014581993 391.32598620445054,387.05261018009605 390.5649907911169,386.17523912317404 389.8676528355651,384.3324364843669 389.479921351117,382.645950314538 389.2426528711155,380.57025285561963 389.45098616889453,378.53791304536753 390.39427320889575,376.96310998721367 390.39427320889575,375.90887949146787 388.9822361600082,373.7937099087065 387.8132546844526,371.05631128388393 387.69172693334184,368.380760799736 389.42205098667273,366.4331816611711 387.6627917511179,363.47946382949203 386.61533802667446,360.9270449463651 386.1118658133428,357.6692856084337 385.9816574577842,352.61011680635033 386.37228245334114,353.28989943563727 386.62691207111595,354.03884984500525 386.95387968000716,355.7819237785164 392.55862506667256,361.90787716702744" /><polygon points="405.78200469334365,365.2832511311418 405.05283804445395,366.1881287319123 403.98802318222806,365.2832511311418 402.0725139200067,366.5085809161204 400.2785324800101,364.88733394668316 397.23455096889353,360.0026853674052 390.5910324622262,354.1332502770282 383.3254075022239,341.37874303878846 381.83235192889526,339.9350529989513 381.48223616000865,338.7685557641699 378.69867136000437,332.42855112860275 378.3601297066717,329.66381121086795 378.7507547022294,328.2052951112665 379.479921351119,328.32527007083866 381.50249080889296,333.8862677346027 387.77274545778937,346.42638053585983 389.4538796800056,348.83245554999576 394.7750602666716,354.72479964179877 395.82540750222535,355.47990305948116 397.8421898666781,356.03359866011886 400.533162097787,357.5057326136845 402.30978247112006,359.5184528405164 404.54936583112016,360.15989725404194 405.4463565511199,361.15340190962644 405.97297692445267,363.3537485185079 405.78200469334365,365.2832511311418" /><polygon points="378.76232874667085,323.89126906125756 378.1517963377823,324.54831931470704 377.7206621155663,324.39669739524186 377.2663796622254,324.49777895498397 376.2565417244545,324.94631291474514 375.03547690667386,325.17372843452716 373.10260657778474,324.4851438520259 368.3977454222287,321.73018912060667 367.037791715564,319.7834335839624 366.65006023111744,318.1017484167837 366.7455463822272,317.3176792319522 366.60665749333606,316.7106030390373 366.4330463288955,316.37542578499324 366.48223616000945,315.5975055967092 366.9336250311169,314.69932081956085 369.0372130133433,313.94020957924545 369.7403380622305,314.3261005526158 370.1743657955639,315.5785308405642 370.7820046933413,316.5841228135073 373.67552320000925,318.9363149210079 377.04357873778207,320.21327923854005 378.2414954666777,320.9591305910635 378.7681158400048,322.24839804442445 378.76232874667085,323.89126906125756" /><polygon points="217.70330097778654,321.47739144447894 217.2114028088984,322.08409160428585 216.46776860444845,321.9324211265534 214.16742136889937,320.47243915024484 213.83756024889706,318.9110262677478 213.6986713600109,317.0014997264831 212.8537639822305,315.6228049915139 212.50943523556387,313.83898919852373 213.27043064889395,312.25724602985645 214.54068522667384,311.93453034538265 216.0655694933375,312.40910741873256 217.74959729778232,313.3581736861787 218.5597824711195,314.0034716988538 218.9127917511165,314.4589437199252 219.45677319111923,315.55955619299016 219.3989028266735,316.4702888010059 218.86070840889218,316.67265912760456 218.26464355556325,317.02679450307664 217.82482880000984,318.4558180016097 217.70330097778654,321.47739144447894" /><polygon points="229.12608647112265,322.83909745218864 226.25496718223133,324.408568753317 223.54061966222716,322.50387045001867 223.51699463112027,320.17277134414104 222.99586588445308,318.3011370174305 221.0454728533385,317.80475195515936 220.44667121778545,314.58951502452646 221.05193799111973,312.05371379834696 222.03505664000787,310.15160608714 224.8399809422331,308.3057248145857 227.03749738667156,308.35079546742503 229.43540871111736,309.91599870855526 230.216417706675,312.681305948321 229.7519020800074,317.0742508912972 229.12608647112265,322.83909745218864" /><polygon points="210.46950471111785,302.0503416234013 211.5516806400045,303.6911992961596 210.0644120888937,305.48370482700955 208.6292269511148,305.6673655201426 205.34797688889697,304.05226764415465 203.74207416889263,302.6712478817452 201.3086250666717,302.873981870314 199.10376398222596,302.12637362325063 197.90874083555892,298.2731362006815 198.82887971555974,297.3412241698189 198.6581621333407,295.407304417645 198.35723619556092,293.61244468186953 197.90874083555892,291.89329846350023 198.55110193778245,289.62165834118383 198.43825472000773,288.2063022925284 198.54242133333955,286.30182371807473 198.87806947556115,285.6922906577292 200.33929635555907,285.50180165904794 204.31788430222895,283.5521919751999 205.63443527111858,283.4632727879998 207.31846300445298,285.4446540210286 208.8664954311156,288.7204305340337 209.65931953778423,292.5530901987433 209.07482880000714,296.2379985395326 209.57251392000487,297.99420837495103 209.92262968889364,300.04155595735784 210.46950471111785,302.0503416234013" /><polygon points="314.5262176711192,263.0226251394398 314.97181952000517,263.9523514051234 314.2108241066694,264.06059990066564 312.81325468445186,263.672171744927 312.02332416000473,264.61455333279713 311.51695836445157,266.6644689368362 310.77043064889125,267.96288920684424 310.0817732266726,268.22381976547706 309.45098616889055,267.7719588757636 308.0649907911145,265.8751254044489 307.1766806044486,264.0223946781443 307.26637966222654,261.44310502128167 308.6002916977847,259.6275278465612 310.63443527111616,259.9651941812969 314.02853248000895,262.5004004764995 314.5262176711192,263.0226251394398" /><polygon points="308.09681948444734,270.0182711222234 307.30110193778086,270.54634521582597 306.7600139377852,270.46999929696165 305.86302321778544,270.1709710509651 304.1442732088967,269.14018793338204 298.5250602666746,261.0609141051725 297.59334727111974,258.48062543928006 297.477606542229,255.19188517762967 297.76985194667134,252.0356588167861 298.39774542222983,251.21291307142306 300.09624078222856,254.03794141189857 300.86881024000576,254.85400800627846 306.2739028622275,267.41554278617787 306.82367139556067,267.8037810065389 307.85955100445364,268.8029262195865 308.09681948444734,270.0182711222234" /><polygon points="162.22297692445053,211.38565088292944 163.59450467556158,212.4242600633193 165.026796373337,210.78934822667708 165.89774542223097,211.27024110002628 166.8178843022318,214.9624862453428 168.16047694222647,222.18155048355675 168.84334727112034,224.48611120198336 169.30631025778666,226.75798205025086 169.57540750222648,229.57927923843613 169.91973617778626,237.193490710039 170.96718990222968,243.40198336636223 171.07714360889332,246.84896614627812 169.572513920005,252.45656431073573 166.68478250667107,252.96672164070142 157.63096305777964,247.38502374510418 156.53721301333903,245.98736626695734 155.2524908088941,243.24874809680148 154.12112504889137,241.37775186349182 150.11070840889573,237.3021188872388 145.7386018844474,230.33400715027597 145.98165745778076,227.39142529151275 146.6240185600043,226.78997531545315 147.55283804445298,227.81369160714297 148.6523750400032,229.79675080013556 149.05457415111414,228.13357471767404 149.6245972622269,226.72598849355347 150.37691207111408,225.7597222223901 152.40526855111298,225.14534348864856 153.55399544889465,224.46050870810348 154.1500602311224,223.436342215036 153.5511019377843,222.18155048355675 152.85955100445392,222.01508312321243 152.17668060444964,222.45685417497083 151.57193521778112,223.03303878850045 151.1234398577848,223.25709889951742 150.59103246223202,222.8217762012556 149.65931953778266,221.41320881732844 149.401796337785,221.11225383935715 148.86649543111972,220.7664610672566 147.87401856000457,219.28705954213154 147.19693525333923,218.96039976371236 146.57193521778495,218.85151000633942 144.8097824711212,217.88424472186256 145.44635655111762,215.76992629928174 146.05110193778472,214.9945290670051 147.6830463288941,214.55873403940421 153.54820842667536,211.53311630571432 158.0447361422273,207.54413042360756 160.34797688889455,207.12073927290726 161.0858241422278,209.13484481983704 162.22297692445053,211.38565088292944" /><polygon points="126.03663431112084,188.7896947389923 124.52332416000544,192.20361917134557 123.62054634667317,192.10720160789458 122.84218986667668,190.7186541270067 121.9857083733416,190.01142582941304 121.23339356444944,188.7896947389923 121.18999082666946,187.43913180156216 121.51985194666963,186.62867881465877 121.59797688889569,185.56724056890874 121.74843989333866,184.58286524277815 122.44288433778863,183.6176676349583 123.55110193778174,182.86472813079513 125.15121763556394,183.29590768004778 126.77737507555733,185.29059903236652 127.37054634667402,186.62867881465877 127.4023750400069,187.1175338457444 127.23455096889893,187.8764832073614 126.6847825066762,188.2302049528367 126.03663431112084,188.7896947389923" /><polygon points="141.25075470223152,83.28965436161337 148.53663431111954,83.64178185041942 151.37228245333958,82.7418677923057 152.32714360889474,83.73307138391391 153.8954306133384,85.97583967329365 155.2872130133359,87.89861180662632 155.75885653334183,89.26054984990475 155.40584725333773,89.79483136586452 154.7866343111167,89.2996448111266 154.28894912000644,88.68061581846325 153.6697361777854,88.71971395109921 152.96371768889614,89.3257081659645 151.20445838222594,89.93816871420029 143.65816213333957,89.06507135832595 141.22471303111794,86.88188507813828 138.93593991112212,87.89861180662632 135.20330097778626,88.50467210935568 133.19519914667666,86.90143876091634 133.828879715562,84.52854828275798 135.10492138667658,82.67665246083311 136.24496768000824,81.91359104117777 138.6755232000077,82.26578292381453 141.25075470223152,83.28965436161337" /><polygon points="29.86665045334007,63.621507493648096 28.98129898667179,63.9831254454017 27.613386453337796,62.85218285033318 27.409685760004976,61.34551058703153 27.332364373341278,60.47111784469092 28.199107271116475,59.31123488913465 29.64673109334086,59.24171638973519 29.84598257777762,58.03434574063107 30.76231715555835,59.18881710724327 31.9547876266725,59.8501557059206 32.084689991118154,60.80115327385931 32.06109760000473,62.00001164876517 30.888409671121764,62.134691788896475 30.003440426674644,62.337821339225115 29.86665045334007,63.621507493648096" /><polygon points="24.2628044088967,60.62170057473435 23.60079324444868,60.97380780683585 22.683983857788093,60.06083767747481 21.873431324448234,58.90475589465689 21.947659235564743,57.3845224690765 22.364749937784723,56.16625955224413 22.847819022232585,55.343338789912536 23.146631964451814,56.1268272224404 24.218642631123544,56.55289962028172 24.894167040007886,56.67814739420862 25.689603626678092,57.19731965620514 25.098546560003854,58.1851463377165 25.398852053338317,59.04874114191574 26.199500657787667,59.80808242494669 25.600785991119324,60.476041876266834 24.2628044088967,60.62170057473435" /><polygon points="81.13501397333778,50.46295609437226 103.34566208000524,62.007531835159796 105.78200469333723,64.28293858335672 107.0493658311193,64.47252470699789 107.96371768890012,65.50535812662872 108.64658801778688,67.26999836842293 109.19346304000399,69.67447035714866 109.02274545778496,69.81819155683411 108.80862506667555,70.86988617593954 108.72471303111766,72.26103243002058 108.95040746666993,73.50174389088289 109.66221304889174,75.13394707408901 109.94867136000721,76.08698987135858 110.20908800001052,77.44454102164661 111.30283804445185,74.62473772214855 112.24033806223304,71.20300093027817 113.3803843555647,68.9492893561042 115.0644120888991,69.67447035714866 113.93015281778176,72.63326736652687 115.1859399111224,76.03477144710627 117.36765283555997,79.01716645846841 118.99381027556046,80.71992949048479 125.16857877334503,84.34598724523465 127.19982876445499,86.18443525636059 128.29936583111774,87.74220116072632 128.9880231822238,88.96081426920995 129.769273244451,89.8925617739589 131.12922695111564,90.56360905616145 134.89658801778504,90.09453374985048 135.9845509688995,90.56360905616145 136.38096305778333,91.31928031751863 136.7108241066731,92.4331053860032 136.93362503111643,93.41652174802158 136.9972824888933,93.83980716311106 137.67436579556218,94.19144144392533 138.15179633778456,94.1133019289079 138.65816213333915,93.91143769679746 139.42783800889345,93.83980716311106 143.08524544001102,95.01185797995709 144.28026858667238,95.03139056472571 143.79705102223284,95.03139056472571 144.3294584177849,95.07045574235514 144.82135651556263,95.25275679953688 145.28721301334002,95.59130456842371 145.7386018844474,96.02748780320627 145.38269916445188,96.515722691456 144.6824676266715,97.76545978585767 144.28026858667238,98.21453340004132 145.512907448893,99.22322442948786 152.90006023112,99.34686114424096 154.03721301334272,99.83488102052922 154.52332416000232,101.04503383927619 154.19635655111819,102.27450638115192 153.6552685511154,103.51678550103674 153.5424213333414,104.47924839815164 154.52332416000232,104.86940104884064 154.94867136000536,104.44023211859536 155.51001393778492,102.35906584521666 156.02506026667058,101.59149085490276 156.4706621155615,101.45488035487915 158.86360192000666,101.52643853698504 160.5620972800061,102.18994580868718 166.69346304000356,106.48831903723175 168.4035324444494,107.04088218267316 170.09334727111565,108.14588703499948 172.6656852622284,112.44736390454642 174.51464355556183,112.59027114280889 174.9660324977853,111.79775112886148 175.0181158400082,109.58864959543342 175.48686577778554,109.13375429211465 175.9990185955587,109.31571573728758 176.81209728000624,110.13448784775903 177.2114028088957,110.3164251555313 177.94346304000896,110.42688482052654 179.97181952000858,111.30400822710635 180.60839360000998,111.99264094603376 182.30110193778017,113.30476705796451 189.08640284444758,111.40145998244577 190.84276856889275,111.91468555937792 194.1037639822298,114.16856699272722 195.683625031117,114.67511065474412 201.26811584000777,114.12310641244767 206.66163434667766,116.40879063999017 213.3254075022272,121.15976027517456 218.0215880533403,126.03742691434098 219.56672689778856,126.65988112122966 226.55457415111826,127.26931787740222 229.99496768000895,128.9223294765581 232.58756024889564,131.76725578112985 233.46429639111435,132.1883953558459 244.21082410667054,129.9139629575247 245.9816574577843,130.63330195421537 248.8201991111218,133.67191545279206 252.21140280889642,134.9543749321092 253.794157440003,136.57980652097228 255.09334727111437,138.99464338706684 255.9093195377834,141.9716650686504 255.3769120711188,143.14920679675174 256.26811584000745,145.5296106619183 256.9191574755635,148.01271224257562 258.5163796622289,157.2783523711223 261.2507547022304,165.91349100200352 259.83293063111927,166.790652646733 261.21603249778644,168.95732305407915 263.4671899022294,171.08470069666942 264.6448519111154,171.85814455003725 265.2958936177875,174.4228360454169 267.68304632889294,178.50007055589856 267.5615185777822,181.0496443555333 270.2524908088968,185.91463675474125 270.5302685866741,187.1496943329853 270.50422691556264,190.14001765957897 270.75885653334456,191.40010267908485 271.5111713422303,193.58546881087028 272.74959729778413,198.54520415466732 273.42957411555983,200.56800154662824 294.4972824888964,232.0734345991582 295.1483241244503,234.01063889196143 295.3653380266722,236.76535297839303 294.9399908266727,239.5318491111027 293.8636019200054,240.37501581775138 288.01290744889627,238.34998155610828 287.5528380444514,238.86108183811774 287.8016806400083,241.00732966760012 288.3919584000047,241.87587750894784 289.10955100445364,242.32927143407727 289.7634861511179,243.24874809680148 290.2843195022307,244.3213308952303 291.92205098667256,246.84896614627812 292.5470510222333,248.33579530583043 297.6280694755637,264.63365441152575 299.06325468445374,265.49315580322536 299.73455096889904,266.29527001129003 300.0065417244492,267.38371919780536 300.35955100445403,270.34275461567904 300.7067731911171,271.6278288577415 302.2837408000058,273.3578853415354 305.7646435555654,272.79820401165216 307.3039954488969,274.2990753331956 308.01580096000833,275.2782989737759 309.7114028088946,276.23832535194634 310.4608241066707,276.96939054751266 311.53721301333803,280.33774627281866 311.9191574755632,281.23360678709935 314.83871765334044,284.3397161662417 318.46140280889654,286.52403731670364 325.55631025778524,288.7839007492598 329.6824676266731,289.1012439474707 331.6240185600058,289.72954476488763 333.1257546666741,291.40476227824155 333.82598620445236,292.5150267761499 334.4972824888984,293.11767455293136 342.39658801778603,297.3031846427371 343.1170741333382,297.1320039707207 344.0372130133383,296.40919914922597 344.80110193778444,296.2379985395326 345.9035324444528,296.9291181617889 349.4365186133422,301.6574973470106 348.20677319111866,302.55720761280105 345.6257546666741,302.9690116778251 344.53779171555965,304.74901814433304 345.4984398933419,305.58503546122245 346.435939911116,305.4963711904618 348.484550968896,304.74901814433304 349.50306951111753,305.0783690799668 351.2073518933363,306.5412769005361 352.1477454222285,306.87688321208793 356.5545741511137,306.9781954738094 358.8086250666741,307.7506570416416 360.4261019022267,309.5801949974007 360.79068522667086,310.535939602417 361.07714360889815,311.75101937024453 361.0424213333424,312.80772956470616 359.7692732444514,313.6428705980592 359.9139491555626,314.585458903226 360.6894121244501,316.5272060178645 362.1448519111155,322.89295085226604 363.1170741333392,324.23243681569556 364.0111713422279,324.43460307748796 365.4984398933429,323.95444939880997 368.4816574577795,325.3632363128206 369.42783800890027,325.0031674634316 370.49265287111695,326.7654499080196 371.09450467556474,329.0324529314209 371.59797688889427,331.6459400833683 372.3445046755657,334.454134552999 374.5088565333418,338.62351934557876 374.9023750400099,340.81769043348436 373.31093987556375,341.94605807206 373.9417269333366,343.931332259891 374.2252917333353,345.79639406991146 373.9417269333366,347.08151197469715 372.87401856000315,347.3334707542607 371.8815417600041,346.16179251847666 371.152375040009,344.32202436762384 370.30457415111897,343.18770217657044 368.947513955564,344.15818823159685 368.947513955564,345.1222515127889 372.3445046755657,350.50744692706 375.7299213511203,353.9947959046523 376.22471303111456,355.30371883726883 377.2808472888954,357.29185017922305 386.1060787911228,370.3529699722716 387.0927685688933,372.72649082226144 386.24496768000756,373.806264518255 385.94404174222916,374.29587962947556 385.6315417600079,375.3817102854405 385.50422691556537,376.47366367834576 385.7588565333401,376.96310998721367 386.3462407822283,376.75604038719666 386.9104769422257,376.40463672718533 387.4399908266689,376.3293339102144 387.92320839111625,376.96310998721367 388.13443527111673,379.0021364925735 388.044736142227,382.1129693381481 387.58756024889817,384.34497400710654 386.73107875556525,383.8121099980977 385.7530695111187,382.4641138814034 384.41626396444946,381.7241835280559 383.06499079111734,381.63011961796246 382.0551528533372,382.23210944527307 382.0551528533372,383.2854789263617 383.42089358223035,384.9780940463502 388.4498287644547,389.5964240805146 389.080615822229,390.6362650305957 390.58235192889583,393.77999561340613 390.88038435556456,394.84431640222795 390.6489028266726,396.8911580817312 390.14832412445134,397.9863407933623 389.7663796622268,399.11265282108434 389.8676528355651,401.2396851214248 390.3132546844489,402.5218785047043 390.978763946675,403.6662916504688 391.57193521778385,405.1794093653537 391.8063102577854,407.54228406831317 391.5285324800081,409.8544540782427 390.9382547200096,411.1289777854178 390.3016806400075,412.15968937644374 389.8676528355651,413.8272783985185 390.25538432001173,416.03768708107833 391.8120972800068,414.89509660602914 394.76637966222864,410.67916974764023 394.30631025778524,408.25475586767163 394.5551528533386,403.5787469518713 394.28026858667164,401.2396851214248 397.23455096889353,399.14393700770137 395.4955463822308,397.12272389366933 394.78374080000196,395.7081871701738 394.76637966222864,393.7925178534251 395.4087408355619,393.0599309306574 396.6153380266725,392.68421833161176 397.87691207111635,392.6278600320704 398.69288433778394,392.8345055881002 399.5059630222265,393.56711382158136 399.9428843377885,394.3059135042343 400.11649543112355,395.48283884768614 400.14832412445145,397.47318871411403 400.3045741511165,398.0739486469288 400.57945841778275,399.744567500213 400.69519914667353,401.4898858273292 400.37112504889336,402.290473879406 400.59681948445274,403.70381059237764 403.0649907911162,412.87173750000403 403.7449676800122,418.6032199596233 404.36418062222543,420.95577442162426 405.4926528711178,422.82732478199546 406.84103246222844,424.61111666658877 407.91163434667436,427.04290054030633 408.3774907733392,430.0971411915039 407.9174213688958,433.8104792627503 406.8236713955656,435.31773840111856 404.8387176533424,436.7748930450647 402.9434630400054,437.41620377802803 397.23455096889353,430.67045680024916 396.09450467555973,432.36522951448615 394.18478250667306,438.6799915158 393.0447361422288,440.07427782481403 391.9886018844529,440.4850467393199 391.7021435733375,441.5180969166731 391.66163434667425,442.8994318231848 391.36649543112156,444.3427274058333 390.79357873778594,445.4063643846443 389.5435787377828,447.2036433632301 388.89543061333995,448.5217988600486 389.17899541333867,450.7969577780569 387.64543061333893,451.8597142993213 386.0019121066756,451.256881773773 385.9816574577842,448.5217988600486 384.780847288895,448.68966102472183 382.8248288000104,450.22512233186825 381.83235192889526,450.61049434754557 380.84566208000723,450.1008047528501 379.6188102400052,447.8751843738036 378.17205098667375,446.97978344578155 376.15526855111625,445.03317496153323 372.82193521778595,443.1856237650546 368.5163796622305,443.3349371848903 364.989180586673,442.569676009839 347.87112504889495,432.37768967969714 329.5493658311209,419.433247536905 327.76695836445384,419.15866185996515 326.08293063111944,418.27243246707116 326.66742136889656,416.2811682013471 328.22413432889874,414.1520105574809 329.43941212445225,412.87173750000403 328.67552320001107,412.1784282731552 326.3115185777828,411.57875960778006 325.55631025778524,411.72868119344184 324.7056157866737,412.5656897538903 323.9764491377841,413.60245578872576 322.6859399111234,416.01895734175645 322.1245972622292,415.7255204985749 320.7009861688981,414.9700258276486 309.90526855111614,410.9540555515484 305.2264491377841,407.39853173874354 302.51232874667477,404.5291801780593 300.3392963555619,400.8143253642962 299.17899541334447,399.60067074366026 279.4278380088983,386.839543435873 278.3774907733388,385.4983421813033 275.8774907733411,380.0120398936713 274.74612508445017,378.09248338991654 272.94346304000356,375.90887949146787 273.94172693334014,373.6053877027327 278.2877917155595,369.5867573563853 278.63501397334215,368.6759961145733 279.3149907911186,366.2635305320846 279.78374080000634,365.2832511311418 280.533162097786,364.30284751544866 281.22181952000744,363.6806037943968 281.9741343288996,363.3600344639315 283.65816213333943,363.1337421495086 284.5493658311177,362.69999678904696 285.29589361778847,361.8575810884478 285.6141806222311,360.5874972179411 285.4261019022296,358.41152165692694 285.13096305778373,357.3170130533104 285.1396435911163,356.2726822296826 285.8572361955645,354.24652920970345 287.2403380622302,351.9617497311275 288.72471303111735,350.885214228904 291.92205098667256,349.4495998936072 294.4538796800039,346.6153664422385 296.9914954666727,341.9838776519738 298.95040746667337,336.16379221640256 299.73455096889904,329.7774502349873 300.26985194667475,327.0496511283361 301.25943523556276,324.45355584862665 301.79762972444735,321.5721915657497 300.4174213688984,315.86314571289824 299.73455096889904,306.87688321208793 299.29473614222815,307.4530785252441 298.8664954311176,308.21283064875206 298.5163796622309,309.1181037747036 298.27621767111907,310.15618781931056 298.3051528533416,311.3649992746567 298.7681158400079,317.01414712518226 298.7681158400079,323.42371834941935 298.33987505778555,326.5696605484395 297.344504675565,329.0450805732945 296.2073518933366,331.26722881483977 295.3653380266722,333.5833882840242 294.6998287644533,340.14941715153464 294.07482880000583,342.98602730392656 292.67436579556545,344.15818823159685 291.4677686044492,344.71269683771766 288.41221304889615,347.01852099388066 286.62691207111806,347.3334707542607 282.9232083911151,346.2751885386938 282.0956620800118,346.6027675568354 280.70387968000716,348.0641047421784 280.00654172445036,348.3916079574649 278.20098616889265,347.64840765619863 276.9220509866734,346.23738999891276 275.66626396445105,345.3805747501824 273.9156852622287,346.2751885386938 271.7542269155636,350.29966691930224 270.3769120711179,352.15060010090684 269.01695836445185,352.04358541233813 267.2634861511206,350.8726223144062 263.6986713600088,350.5200394374778 262.21718990223405,349.4495998936072 264.60144917334105,344.66858961424 265.9990185955586,342.77174216551236 267.5615185777822,341.94605807206 267.5615185777822,340.8870362079982 264.9776065422337,341.0761579194051 264.15874083555906,340.8870362079982 263.57135651555905,340.28812010027264 262.9984398933395,339.36758994614786 262.4023750400049,338.6739670983486 261.73107875556525,338.7748616132821 260.9469352533395,340.9311649138788 260.582351928894,344.15818823159685 260.0644120888994,347.1067083158853 257.6309630577832,349.3929254181702 255.54762972445033,353.8185779382944 254.1847825066725,354.83177700843225 253.95330097778768,355.30371883726883 253.7247130311172,356.360763865173 253.3601297066731,357.4176640388852 252.72644913778774,357.8894478332383 251.31151857778067,357.7384800871479 250.6720509866753,357.4554078588668 250.52158805334273,356.93956040378185 249.53200469334362,356.524341114398 248.34276856889588,355.5931622330551 247.20561578667315,354.3975650976604 246.37228245334128,353.1514300893548 245.35955100445221,351.993225036322 242.97818524445063,351.05520352776 242.0059630222255,349.9785415391058 241.586402844451,348.9395147815161 241.06846300444928,347.0311192002283 240.81093987556343,346.2751885386938 238.2993658311186,342.39357728357743 236.45908800000512,340.6411710312288 235.6691574755594,339.35497905762145 233.78547690667304,336.93332962683695 226.64427320889757,334.454134552999 225.71834730667035,333.69696949286265 224.75769912889376,332.6368131814072 224.1240185600084,331.17886007957713 224.17320839111667,329.24712064768914 224.8445046755606,328.0979476326605 227.02332416000672,327.4159395795948 228.09971299556153,326.0770075488953 229.20214357334032,327.7695808917359 230.3045741511191,328.88723325107856 231.5285324800108,329.11453238860946 232.99843989334263,328.1863515747026 233.50769912889575,327.428570028098 236.24207416889504,324.2640255713748 236.88443527111858,324.47250872831796 237.50075470222853,322.1346478176262 240.1975139555624,319.7138975169785 240.81093987556343,318.0638113676569 241.14658801778504,315.99596233012255 241.85839360000827,314.71197200496954 242.5239028622272,313.1304084417061 242.7090880000094,310.15618781931056 236.43304632889368,317.05841301227827 234.679574115561,320.24488449743114 233.01290744889656,322.17888425127836 232.41394915556555,318.955281239868 232.51232874667522,310.643532576624 233.28779171556278,306.0663374896596 233.449828764455,303.634186944661 232.75538432000928,304.21695973610747 231.84971299556025,305.7623607773771 230.83408803556082,306.6995836173813 229.85318528000676,306.8072303155824 229.07193521778666,305.81302426826693 228.99959729778274,304.39431663349535 229.08061582222956,298.52669807271025 229.3149907911129,296.77061006765575 229.92552320000854,295.02046205006343 230.5302685866721,292.56577791235014 230.955615786673,289.91992878744304 231.0163796622284,287.6286604906012 230.5302685866721,287.6286604906012 229.7345509689002,289.2154843160658 228.77390286222834,291.7854424645075 227.95793059555933,294.811178581542 227.46603249778872,299.2429650731826 227.0898750577814,301.07453031059856 226.5979768888947,302.7409382890645 226.1118658133384,303.6911992961596 225.54473614222843,303.7862188378832 224.60723619555907,302.2657636939649 223.7276065422293,301.6574973470106 222.02621767112092,302.53186517004895 219.2802685866731,307.75698835767326 218.12575466667496,309.00415916043755 216.60955100444923,308.649654035189 215.40006023111928,307.5353887255403 214.27737507556088,305.553369723242 213.00422691556307,302.6268990548898 214.36707413333878,299.7563544620192 216.51117134222844,297.93081429516275 218.49033806222664,295.4009629120102 220.06441208889882,287.17159425033043 221.39832412445202,283.2155641448456 222.18246762666993,279.4989734348284 221.25943523555875,276.96939054751266 220.56209728000695,279.86753641937 217.9521435733399,284.00947384928696 217.37343985778494,286.0732544592395 217.1448519111138,289.5391560171013 216.47644913778663,292.04556304664817 215.40874083556005,293.82176084281144 213.9764491377882,295.0775383975294 213.3167268977843,294.08815515658864 211.69635655112344,292.66093525162415 210.79936583111802,291.40476227824155 209.56093987556343,285.50180165904794 209.90526855111824,283.539489341905 210.86302321778376,281.1001874258453 211.06556949334134,279.6769026220878 211.13501397333962,276.96939054751266 211.08293063111674,275.88866077270575 210.52737507556216,276.02852861333207 206.3288797155593,278.8698336321005 204.95445838223034,279.28291111096013 203.86649543112156,280.08993660110093 202.628069475562,280.5664865984759 202.36765283556366,281.2272535517154 202.18825472000646,281.9133742649334 201.79473614223014,282.3008782361488 200.92957411556327,282.2437067330453 199.81556949334305,281.8117305693956 198.84913429333935,280.9667655859503 198.43825472000773,279.6769026220878 198.23570837333833,277.420708951435 197.6830463288941,275.7360749602051 196.88154176000552,275.0748342852692 195.92668060445035,275.9013760938517 196.5979768888964,278.0499678970269 196.74554638222475,280.47753276920116 196.4185787733392,282.9106809684845 195.43478250667405,285.78753346055765 194.78374080000833,288.18725989595305 194.51464355556283,288.7839007492598 193.85492138667502,288.8092886259009 193.48455096889907,288.09839444144404 193.25596302222792,287.21603247602036 193.0100139377835,286.663711059867 190.98455096890063,285.1398594767452 190.1136019200088,284.18729836692637 189.34971299556196,282.8789216882573 188.29357873777894,281.79902505171736 186.9046898488925,280.7761591291954 186.19867136001034,279.62606611065564 187.18246762667192,278.1389497531868 186.14658801778532,276.3909011612863 185.03547690667617,272.7218805404529 184.27158805334258,271.6278288577415 183.11707413333878,271.9458833719516 181.9104769422303,273.5677552376542 180.90353244445083,275.5516962905874 180.34218986667412,276.96939054751266 181.20445838223063,280.08993660110093 182.00885653333998,282.0912474108549 181.97992135111605,283.6411099749613 180.34218986667412,285.50180165904794 178.70445838222508,286.4351525875293 177.46603249778303,286.2637292626918 176.43593991111928,285.1970093864468 175.44346304000413,283.4632727879998 174.2773750755589,280.7316837165124 174.16163434667524,278.9524508467959 174.5840880355658,277.0075312231869 175.00654172444925,273.7649005361119 174.98339356445527,273.4532814049544 175.00654172444925,269.5028867096941 175.14832412445287,267.9183393317045 175.33061582222942,266.8299661711728 175.3479768888944,265.7096076783826 175.00654172444925,264.06059990066564 175.44346304000413,264.06059990066564 175.44346304000413,263.0863086202696 174.9660324977853,262.43671211869923 174.6303843555637,261.7361051894928 173.9851296711187,259.78680630345457 174.39890282667108,258.8629454554499 174.4046898488932,257.9835810164285 174.3352454400103,256.9320344187186 174.51464355556183,255.5042488163102 174.8155694933402,254.25471752640152 174.99496768000782,253.65538006444004 175.97297692445437,252.30351037797658 177.09566208001277,251.28945126283497 179.50885653334225,250.02009317625453 182.81904170667147,245.98736626695734 185.34218986667597,245.6426991976538 191.06846300445142,246.84896614627812 199.48570837334074,244.51284768268317 201.01348615112045,243.1338195483964 201.79473614223014,242.66770272118623 202.7698519466675,242.67408805820065 204.41047694222902,243.59352320825928 205.19172693334227,243.82974911133152 208.6350139733362,242.13131393754446 208.4556157866757,240.7007597714649 207.9926528711198,239.4743570737217 207.3560787911184,238.61192470975215 206.6732083911191,238.27331343659756 201.13501397333664,238.91219001570056 193.89543061334038,242.13769972309 191.93362503111828,244.1106569293266 190.90931953778565,243.89359268309363 182.76985194667574,240.02370764693075 181.06846300444772,238.50331517103638 180.34218986667412,236.76535297839303 180.90931953778266,234.13209736117682 185.7009861688944,224.71652899123535 185.7588565333394,223.69239673834733 184.73455096889637,223.25709889951742 182.80457415111755,221.80379216137527 181.7658009600052,221.47724024805524 181.31441208889925,222.72574571668105 181.4156852622311,228.17835732957855 181.02506026667342,230.50029314725458 179.9023750400032,233.01332788842495 178.2559630222302,234.66904850471946 176.22181952000773,235.2954436772348 174.24554638222602,234.89915872287833 172.7958936177835,233.50560667906808 171.9625602844502,230.9415728751349 169.68246762667434,217.57033757277253 169.3931158044535,215.02016338481104 169.1761019022259,208.69230043700577 168.79705102222786,204.82375169819585 167.80168064000947,205.00342935623905 166.39832412445088,206.88978860328126 164.80399544889366,208.10861564041664 163.34566208000822,207.28753248040528 161.74265287111353,205.2087701464984 160.44346304000427,202.55174689242898 159.32367139556405,197.81301168971765 157.95214357333904,195.89870129988793 155.00943523556074,192.9170705297269 155.08177322667507,194.94136549606975 157.33871765333944,197.67170313561775 157.92320839111653,200.07358964881155 157.5065417244531,202.24362620580752 156.50538432000545,204.5542273348571 155.30457415111698,206.37653978332082 154.28026858666897,207.12073927290726 153.01580096000293,207.2747023876969 152.17957411555858,207.172060552125 151.59797688889398,205.92741880894243 150.27274545778369,195.44896124483154 149.6245972622269,192.9170705297269 149.43651861333933,193.70757368459527 149.32945841778107,195.2305065389928 149.1847825066749,196.25204990324056 148.9677686044459,199.2644826837286 148.87806947556328,207.172060552125 148.42957411555986,209.76975502196234 147.80457415111883,210.25071214011098 138.69867136000877,210.46232379192986 136.90179633778357,211.08429947190643 135.21776860444916,211.1740648921239 133.79705102222772,209.76975502196234 127.59913429333736,197.17710291115714 126.99728248889741,194.75502436532923 127.46603249778374,192.43501604915383 129.67668060445234,187.5356086127482 130.1049213866733,186.96316205440917 130.49265287111567,186.91813629182468 130.8340880355651,186.62867881465877 131.12922695111564,185.37423587522994 131.11765283556167,184.58286524277815 130.64311580444894,184.1388895619137 130.64311580444894,183.3087784601974 131.26232874667707,180.27713655629492 132.20561578667045,177.4568162054391 133.39774542222926,175.36987721625303 136.34334727111792,173.61099236299742 137.57887971556144,171.2007223336676 137.9781852444495,168.02882582089347 136.9972824888933,164.82979830827963 136.32019911111541,166.0489416786573 136.14080099556602,167.36462275564992 136.02506026667527,168.72520952136938 135.54473614223,170.15001740004516 135.00075470222725,170.53679683801346 133.40353244444856,171.23295016326017 132.23455096890007,173.32102708182214 130.40006023112056,173.59166158344613 128.56846300445213,172.99238647171728 127.7322361600092,171.85814455003725 127.21718990223039,170.1886961363113 126.02506026667228,167.8482716358169 124.6535324444558,165.73933650847192 123.60318528000462,164.82979830827963 123.11996764445396,165.88769065916358 123.42089358222665,168.40281753882329 123.9851296711187,171.42631474078485 124.28894912000743,174.02336816746202 124.17320839111667,176.65173799770577 123.74207416889789,178.84779004047454 122.85376398222851,180.66983790511415 121.37806947556271,182.2275673177042 119.74901859556155,183.21224794730995 118.10839360000926,183.57905711588427 116.52274545778454,183.2701663706331 115.0644120888991,182.2275673177042 112.56151857778534,179.1375442431717 111.39832412444903,176.99954216306577 110.64890282667506,174.56457758031667 110.50422691556179,171.65834579135515 111.2594352355579,170.29828513480942 114.09218986667398,168.08041200927448 109.19346304000399,168.08041200927448 109.84450467556499,166.00379182763243 110.97297692444954,164.00402353507917 113.56556949334333,160.40311086853518 110.93246762667377,159.11850053545402 108.65526855111938,162.0295414619335 106.58640284444729,166.0489416786573 104.57830101333982,168.08041200927448 101.67610190222476,169.72453717407427 100.21487509333937,169.92438687373732 98.9995972977809,168.08041200927448 98.6899908266686,165.70708532542864 99.02853248001051,163.37172903497583 99.71718990222769,161.22927800772806 100.45214357334089,159.42192049448676 97.67436579556588,160.53220539125084 94.91394915556342,163.37172903497583 92.35318528000462,167.20339955444427 88.83756024889635,174.17800343512062 88.0852454400113,175.273245860678 87.25769912889874,175.640438656034 86.67899541334165,175.11863291070995 85.48107875556354,172.90216881266525 85.11360192000197,172.3995084275174 81.6211250488955,171.948374624908 80.02390286222791,170.67216496626463 79.44519914667296,168.08041200927448 80.1136019200058,166.0940914193552 84.12401856000287,160.94529318217457 88.75654172444953,151.83276995216283 90.18304632889098,150.99911471872525 90.77043064889665,150.1847581504876 90.70098616889126,148.47820303738706 90.19172693334099,147.60538417558928 89.48860188445025,147.70236908975272 87.98686577778341,148.47820303738706 86.69346304000669,148.65275476573055 86.22181952000787,148.21960055645076 85.13096305778234,145.93705029225492 84.61881024000988,145.21916567563102 83.37459726222818,144.1454451292543 84.08929635556106,142.47634822779224 86.04242133334026,141.99754716905085 86.81499079111674,140.88454086272458 86.97992135112145,138.87165424489672 86.36649543112043,137.69992055885893 85.42899541334137,137.43447504893828 84.61012970666957,138.16604638089456 83.96487509333781,138.17899387494896 82.29242133334154,135.1616208143684 81.45330097778611,134.3649887829161 80.86012970667085,134.8377966666468 79.40179633778612,137.0395266724529 78.55978247111608,137.62223018170312 76.76001393778407,136.72873307570347 75.04705102222857,134.44271263362242 74.28316209778814,132.09121132147823 75.31904170667403,131.00266561931613 76.03084728889371,126.29678903988201 76.89311580445022,122.9503335355742 78.03026858667295,121.21166679509696 78.03026858667295,120.12155222853136 77.66279175111563,118.70676399324105 77.67436579556488,116.89570783505587 78.05631025778439,115.33746232678408 78.78547690667403,114.67511065474412 81.27679637333998,115.9218421919661 82.43999082666846,115.74653298323972 82.88848618667188,113.48662793500353 85.2669583644527,114.65562873053364 87.10723619555907,113.77889503152767 88.84913429333778,112.22650179455434 90.94404174222674,111.40145998244577 101.84971299556054,111.56387699040846 103.38617137778172,112.73317567452273 104.6072361955602,115.01928100219669 108.49033806222508,125.11661931967564 110.0759862044498,127.83332720458014 112.10723619556191,128.9223294765581 109.5956620800095,119.62186375003677 107.77274545778397,114.72056790993332 104.21950471112069,110.40739208416181 103.8896435911191,105.92271250934613 104.80399544889778,102.27450638115192 106.72529173333842,102.58021710372742 108.29936583111603,98.54644014849003 113.75943523556131,96.30090316163171 114.09218986667398,92.745728467591 107.49496768000668,95.05092309885094 106.03663431111983,96.61987526008886 105.07598620444796,98.06484506222546 104.34103246223145,97.70037443527309 103.72760654223185,96.63289436989993 103.1257546666744,96.02748780320627 102.11302321778533,94.38678692543641 101.20445838222594,93.26022582924662 100.18593991111544,92.745728467591 85.58524544000576,91.51470014207064 81.4764491377808,88.47860591230017 82.30978247112049,90.53755014572369 83.9185787733399,92.67408684747886 85.68941212445509,94.35422964360947 87.03779171555865,95.03139056472571 95.07019911112025,95.03139056472571 98.74496768000967,96.55478001342033 100.45214357334089,97.99976229744595 101.66742136889297,99.89994793919061 101.74843989333979,102.32003859189626 100.16568526222613,103.4387424584346 96.76580096000649,103.76391610015543 84.34103246223188,110.85571339584175 83.733393564453,108.28887577994402 82.31556949334191,108.58784361817135 79.44519914667296,111.40145998244577 76.29705102222957,112.91505032779372 72.99265287111467,113.43466810883132 71.78316209778473,112.34342958051764 70.46371768889585,110.53734302786972 69.21950471111487,109.95904412816668 68.2357083733379,112.59027114280889 68.80283804445142,112.72018449432153 69.08061582222871,112.96051834606709 69.45387968000745,114.57770100953928 69.80978247111906,115.6816026310484 69.68246762667079,116.51266899076114 68.49901859556127,116.85675571740717 67.97818524444992,116.5840844678172 67.26637966223024,115.90236348569198 66.5632546844499,114.99330648940185 65.3595510044525,113.01897677850343 63.42089358223077,112.14205289314197 62.44867136000707,111.40145998244577 61.887328782228934,110.46587030182104 61.059782471116364,108.18488430687165 60.463717688898555,107.04088218267316 59.31499079111617,105.70816107033716 58.54242133333969,105.11648731844048 57.79589361778861,104.86940104884064 57.27506026667584,104.45974028361809 56.953879680003894,103.44524620936318 56.69056952889662,102.19645063706247 55.83987505778225,99.22973165873424 55.562097280006384,95.53922127416774 55.12806947556257,93.83980716311106 52.211402808897134,91.65800475869497 50.72992135112031,92.06184861208197 50.03547690667247,91.72965604447216 49.740338062232325,90.01635171794322 48.863601920005806,87.40981796864844 48.69288433779033,85.74768152020948 49.520430648893665,84.9979705039853 51.103185280009455,84.49594834786467 52.55862506667128,83.35486438107051 53.027375075559036,82.22665125298892 51.67899541334151,81.71792181457653 50.874597262227894,81.90706883162994 49.401796337781434,82.72882480327479 48.52506026667314,82.91142507336451 47.95214357333748,82.46143790501037 47.055152853337745,81.38527246751232 46.22181952000588,80.11324196886397 45.857236195559636,79.0236911737046 45.44635655111975,75.8389492473047 43.91568526223111,70.20361221916409 43.91568526223111,67.47911338132843 43.108393600008554,65.74066745868583 43.84913429333395,64.35485110228609 45.29010652445322,63.419934338958626 46.58640284445141,63.086474393496644 46.60665749333788,62.694149604599886 48.01580096000393,60.398638626164086 48.60029169778244,60.104291560762135 51.19867136000664,60.889191380703835 53.7796898844519,59.280058558440714 56.66742136889411,56.11966030300101 59.497282488894854,53.979256283414315 61.92205098667429,55.40626015737513 65.81672689778628,50.639792682819746 67.30399544889565,49.912771220257525 68.77968988445105,50.1289201638063 71.51985194667034,51.21611992237058 78.58293063111859,49.83417013377789 81.13501397333778,50.46295609437226" /><polygon points="97.24076060445341,55.136238716365995 95.95068657778398,55.18139953602889 92.05482261333984,53.81230256483809 90.37163662222767,51.69452593936796 88.24658318222944,51.10258544628721 85.76371484445033,50.18982535064657 84.55661959112177,48.55788159962873 84.52487950222789,46.88094781336156 88.48483441778683,44.885943756294694 90.9216312888951,43.11706069791347 93.1541322666746,43.03659991654132 94.95132416000729,44.986509901002194 96.30102634667637,48.29523209929624 96.70817408000687,51.46688311545233 97.24076060445341,55.136238716365995" /><polygon points="84.22818524445077,43.26806905324281 84.14137969778395,44.60534609674079 83.33408803556495,45.673685359525564 82.4370973155574,46.33558601395089 81.66742136889695,46.68289677685374 80.93246762666979,46.2962669104578 80.24381027556089,45.627808842872184 78.22992135111946,45.6671316116188 77.24612508444721,44.34970862906647 76.0163796622237,44.76265705623308 74.12691207111806,43.99573459802957 73.98512967111586,42.435427934413326 77.04357873778491,41.123994926838975 77.75249080889353,40.310791153349385 78.24728248889485,39.21544980382765 78.79415744000653,38.743157569580205 82.69172693334,39.37287404379424 83.60318528000263,40.4157255198661 83.75943523555875,41.43875980072056 83.89543061333953,42.05513594337975 84.22818524445077,43.26806905324281" /><style>
    polygon { fill: lightsteelblue; transition-duration: 0.5s; }
    polygon:hover { fill: cadetblue; transition-duration: 0.3s; }
    </style></svg>