<svg height="500" width="500" xmlns="http://www.w3.org/2000/svg"><path class="land" d="M223.039,258.910023 l-10.92525,1.040965 l-2.6245,-0.24871 l-7.309,-4.419666 l0.905375,-0.259167 l1.3225,-0.142266 l16.886375,1.514276 l1.22575,0.396327 l2.243,0.944998 l-1.72425,1.173245 Z" /><path class="land" d="M372.895625,366.063643 l0.86975,0.239109 l0.4425,-0.254039 l0.417125,-0.363457 l0.793375,-0.07967 l4.547125,0.906286 l1.19025,1.149957 l-0.53925,2.204783 l-1.48,1.094477 l-2.10575,0.159305 l-4.175875,-0.348326 l-3.458625,0.965085 l-1.215625,-0.462593 l-1.297,-2.243963 l-0.803625,2.781125 l2.009125,1.745718 l5.701625,2.222193 l2.177,1.848736 l-1.15975,0.178892 l-2.751625,-0.839807 l-2.60925,-1.187821 l0.549375,1.804042 l2.81775,2.285128 l0.9765,1.817579 l-4.343625,0.764538 l0.885,0.734666 l0.671375,0.823972 l0.996875,1.766456 l-3.3365,-0.848462 l-2.96025,-1.935566 l-4.79125,-3.957669 l1.592,-0.983577 l1.276625,-1.371516 l0.24925,-1.212682 l-1.495375,-0.52202 l-1.673375,-0.835238 l-0.54925,-1.904566 l-0.173,-2.109314 l-1.159625,-2.821884 l0.167875,-1.647987 l1.61225,-4.194529 l0.646,-1.006844 l1.25625,-0.249167 l2.512625,0.493424 l1.403875,0.119674 l0.803625,0.45344 l0.122,0.82729 l-0.6205,1.185788 l3.011125,1.394722 l1.414,0.33868 l1.586875,1.075632 Z" /><path class="land" d="M292.88875,290.4476 l-2.19225,1.8224 l1.92775,-0.747049 l1.795375,-0.12121 l1.408875,0.742104 l0.757875,1.816745 l2.538125,-0.640777 l6.540875,-0.201909 l1.3225,-0.459285 l1.2715,-1.842494 l2.899125,-1.413806 l3.16375,-0.737391 l2.05475,0.21213 l1.999,2.100615 l1.0325,1.81726 l-0.274625,2.194934 l-1.902375,3.207592 l1.175,1.718965 l-1.77,1.128955 l-2.965375,0.554297 l-2.421,-0.020185 l-2.63975,-0.977616 l-4.969375,-2.706887 l-2.705875,-0.544638 l0.111875,0.57983 l0.147625,0.090829 l0.2135,-0.035315 l0.300125,0.211765 l-0.910375,2.515265 l4.88275,2.987713 l-3.0365,2.099824 l-2.899125,0.317248 l-2.115875,-1.299053 l-4.37425,-4.927178 l0.874875,-2.374495 l-6.083125,-4.408925 l-0.844375,-2.614842 l2.9195,-1.686585 l5.030375,-0.282886 l9.27725,1.201948 l-3.3925,0.722108 l-8.148125,0.0 Z" /><path class="land" d="M125.26575,108.468036 l2.187125,0.078434 l1.4445,-0.715707 l2.004,0.114905 l1.993875,0.616463 l1.424125,0.861799 l1.1495,0.939938 l0.93075,0.454252 l9.30275,2.202829 l7.039375,0.380922 l3.072125,-0.422607 l6.307,-1.816631 l3.423,-0.391476 l3.3265,0.563788 l5.88475,2.395754 l3.28575,0.54783 l1.098625,1.309588 l0.437375,2.962115 l-0.0305,3.220927 l-0.2695,2.047258 l-1.7955,2.718174 l-2.5075,0.983734 l-2.822875,0.572503 l-2.72625,1.477786 l-3.824875,3.869381 l-0.762875,2.276754 l2.49225,1.27304 l0.834125,-0.400051 l2.970375,-2.609049 l1.241,-0.779757 l1.347875,-0.395224 l2.995875,-0.17673 l2.268375,-0.873639 l1.627625,-2.158769 l0.981625,-2.721728 l0.3205,-2.582459 l1.536,-0.786426 l9.480875,-2.234986 l2.1515,-1.490598 l1.831,-1.6681 l2.22775,-1.397533 l13.7635,-1.658805 l1.592,0.490389 l1.057875,1.705559 l4.64375,3.018444 l1.052875,2.313634 l-0.228875,1.635469 l-0.24925,0.739483 l0.42725,0.541556 l1.759875,1.020387 l1.66825,0.531036 l3.6265,0.468434 l1.612375,0.827526 l1.5615,2.044729 l0.5035,2.3247 l-0.350875,2.526519 l-0.946125,2.618772 l1.36825,1.386758 l2.141375,2.69985 l1.571625,2.641362 l-0.345875,1.187937 l-3.367125,3.914699 l-1.332625,0.616742 l-3.667125,0.279816 l-1.490375,0.409444 l-1.93275,2.020527 l-1.58175,2.60484 l-2.080375,2.241356 l-3.397625,0.957368 l-13.275125,0.941559 l-2.665125,1.117321 l-4.7405,3.376476 l-2.441375,0.713246 l-2.909375,0.403136 l-6.12375,1.793038 l-3.382375,0.408048 l-6.988625,-0.356501 l-3.64675,0.310035 l-2.594,1.301646 l-0.997,1.750515 l1.047875,0.283957 l3.326375,-0.691903 l1.9735,0.067126 l1.261375,0.314935 l0.834125,0.78472 l0.66125,1.434908 l-0.12725,0.748252 l-1.58175,2.785747 l2.187125,-0.675733 l2.766875,-2.817046 l1.876875,-0.908309 l1.530875,0.237461 l3.295875,1.899058 l2.004,0.453929 l4.46075,-0.639696 l8.83475,-2.53925 l4.776,-0.206415 l-3.575625,3.14813 l-4.954,1.691952 l-4.770875,2.305066 l-3.062,4.972614 l1.98875,-0.08747 l1.36825,-0.901492 l1.220625,-1.277743 l1.54625,-1.190522 l3.34675,-1.087533 l3.479,-0.64439 l7.715875,0.046374 l3.585875,-0.634198 l2.36,-2.088759 l-2.16675,0.06199 l-2.75675,-0.371444 l-2.243,-0.866719 l-0.595125,-1.413855 l1.77,-1.662002 l2.838125,-0.123954 l5.28975,0.918867 l4.46575,1.341797 l1.973375,0.056815 l0.803625,-1.796054 l0.89525,-1.461007 l3.692625,-2.380971 l0.534,-1.828937 l-0.946,-1.503971 l-3.19925,-1.938602 l-0.976625,-1.763623 l0.254375,-2.379832 l1.230875,-1.728736 l1.363125,-1.330481 l0.651,-1.149568 l0.8545,-0.839075 l5.503375,-3.513022 l3.753625,-4.635742 l1.058,-1.89384 l-0.976625,-1.204083 l-2.84825,-2.694612 l-0.595125,-0.929739 l-0.178,-1.59998 l-1.45475,-4.106202 l-0.1525,-3.089563 l-0.274625,-1.503886 l-0.8545,-0.650537 l-1.3835,-0.374805 l-1.57675,-0.936999 l-2.66525,-2.254771 l1.892125,-0.249992 l4.577625,1.557233 l10.493,1.405688 l6.627375,-0.39572 l9.6385,-1.832875 l6.50025,-3.448638 l8.7585,-1.709656 l4.943875,-2.836549 l3.9215,-1.231073 l1.77,-0.798305 l1.820875,-1.377634 l1.63775,-1.591996 l2.594,-3.248201 l-0.183125,0.987158 l-0.2085,0.391732 l-0.54425,0.375917 l0.7325,1.086147 l0.2695,0.99189 l-0.239,0.850869 l-0.763,0.65746 l-0.305125,5.909387 l-0.996875,5.751823 l-1.820875,5.407483 l-2.772,4.861621 l-4.1505,4.768754 l-8.80425,7.850405 l-4.26225,4.788674 l-1.39875,2.2063 l-0.768,2.174351 l-0.330625,2.489047 l-0.066125,3.154914 l-0.356125,2.579388 l-0.925625,2.573066 l-1.36825,2.504577 l-3.387375,4.820171 l-1.419125,2.733283 l-0.356,2.855489 l1.37325,2.833335 l0.376375,1.256599 l-0.406875,1.493007 l-0.818875,1.410256 l-0.77825,1.018912 l-0.54925,1.409616 l0.366125,1.506939 l1.419125,2.699094 l1.571625,4.459585 l0.254375,1.889586 l-0.66125,6.203289 l0.284875,1.691845 l1.113875,2.188514 l-2.121,2.023722 l-4.781125,7.427205 l-2.675375,2.766552 l-2.929625,0.925301 l-10.966,-0.122611 l-8.76875,1.083549 l-3.824875,1.425641 l-1.866625,0.061403 l-1.63275,0.429171 l-0.701875,1.619189 l-0.72225,1.276754 l-1.703875,0.045929 l-3.545125,-0.934466 l2.085375,1.776928 l1.99375,0.490058 l4.4455,-0.551287 l10.325,0.0 l-1.18,1.546697 l-2.28875,1.587132 l-2.711,1.316256 l-2.436375,0.765056 l-3.957,0.326397 l-3.48925,-0.566069 l-3.061875,-1.423332 l-2.716125,-2.189204 l-1.673375,-0.995319 l-0.579875,0.949408 l0.005125,1.592216 l0.117,0.979678 l-0.717125,0.591758 l-1.658125,0.408049 l-4.598,0.591648 l-3.25525,1.177963 l-1.759875,0.270297 l-3.590875,-0.030575 l-1.678375,-0.224433 l-1.597125,-0.52008 l1.063,-1.468902 l0.401875,-0.857034 l0.16275,-0.79585 l-0.3815,-0.95939 l-0.859625,-0.377658 l-0.849375,0.091814 l-0.391625,0.433839 l-1.01725,1.928712 l-2.36,0.061182 l-4.379375,-1.561231 l0.0,-0.857359 l2.5635,-0.857495 l-1.825875,-0.643211 l-3.967375,-0.42885 l-1.892,-0.64334 l2.192125,-1.608623 l0.762875,-0.847993 l0.457875,-1.052426 l-2.375375,-0.020468 l-7.008875,-2.54504 l-5.096375,-0.664624 l-5.22875,-0.112454 l1.414,-2.147758 l3.102625,-1.24808 l6.663,-1.760225 l0.137375,-0.260977 l0.152625,-0.527149 l0.244125,-0.578402 l0.39675,-0.430005 l4.267375,-0.860113 l1.5665,0.547841 l1.658125,0.865057 l1.291875,0.076862 l0.523875,-1.87381 l-3.814625,-1.244326 l-23.574875,2.488489 l1.113875,-1.781779 l4.379375,-4.851802 l1.3325,-1.096903 l1.45975,0.046113 l3.748625,1.296797 l1.6225,0.369052 l14.587375,0.0 l1.592,0.399757 l2.13625,1.783053 l2.34475,0.79916 l2.28375,1.777036 l3.31625,0.701515 l1.3275,0.757659 l0.930875,1.09541 l0.656125,1.284444 l1.84625,-4.243495 l-3.128,-2.57639 l-9.038375,-3.490112 l-0.803625,-1.025424 l-1.159625,-2.497849 l-0.595125,-0.784875 l-1.378375,-0.58498 l-3.016125,-0.133423 l-11.016875,-1.760286 l-2.517625,-0.959975 l0.762875,-2.916937 l-0.72225,-2.527984 l-1.190125,-0.997126 l-1.765,4.203119 l-2.73125,0.85247 l-3.367125,-0.333828 l-3.011125,-0.950104 l0.0,-0.863028 l1.937875,-1.053345 l1.815875,-1.742224 l0.61025,-1.88154 l-1.72425,-1.434847 l-1.556375,0.015421 l-0.63575,0.966883 l-0.305125,1.131222 l-0.56975,0.555161 l-1.190125,0.205676 l-8.97225,3.109061 l-2.4515,0.262111 l-1.47,-0.996746 l0.42725,-1.67016 l4.084375,-2.863748 l1.383375,-1.50179 l-12.797,0.0 l1.302125,-1.008424 l1.63775,-2.511264 l1.40375,-0.792856 l-1.7395,-1.384965 l-2.690625,0.262595 l-3.08225,0.834144 l-2.883875,0.288225 l0.610375,-2.512815 l-2.27875,-1.689752 l2.599125,-1.061448 l2.67025,-0.010258 l6.032375,1.185031 l2.004,-0.700628 l-0.86475,-3.195715 l-11.596625,-6.020394 l-3.367125,-2.514329 l1.566625,0.764219 l1.43425,0.134254 l1.2055,-0.557594 l0.9155,-1.291166 l1.75475,0.846978 l1.953125,0.216895 l1.174875,-0.511222 l-0.61025,-1.332604 l-1.983625,-0.774861 l-2.472,-0.439218 l-1.55125,-0.940523 l0.803625,-2.263979 l-0.579875,-1.209873 l0.478125,-2.337924 l-0.6765,-0.786445 l-1.45975,-0.155268 l-1.012125,0.626005 l-0.8545,0.838118 l-1.01225,0.501766 l-1.307125,-0.031017 l-1.510625,-0.67251 l-2.573625,-0.496619 l-4.64375,-1.84219 l-1.49025,-0.941942 l-0.12725,-1.439247 l1.770125,-1.191057 l3.9825,-1.279292 l-1.66825,-2.03617 l-5.137125,-3.45248 l-2.197375,-1.944947 l-0.86975,-2.708481 l1.07325,-2.304823 l1.495375,-1.885195 l0.39675,-1.418132 l2.482125,-1.745991 l0.081375,-2.084522 l-0.56975,-2.126882 l0.4985,-1.898834 l0.6765,-0.187338 l2.029375,0.301783 l0.77825,-0.114445 l0.483125,-0.457934 l0.111875,-0.452729 l0.045875,-0.437163 l0.289875,-0.400743 l1.790375,-1.348269 l0.95625,-1.004868 l0.671375,-1.213439 l-1.083375,-0.744762 l-0.5545,-1.036798 l-0.376375,-1.224496 l-1.556375,-3.529207 l-0.747625,-0.657109 l-1.7395,-0.594633 l5.2235,-5.557956 l0.529,-2.120314 l-4.0435,-0.292444 l2.43625,-2.090068 l3.5095,0.898816 l3.428125,1.59859 Z" /><path class="land" d="M60.604125,28.428486 l-0.824,2.046661 l-0.935875,-0.206754 l-1.841125,-1.447505 l-0.2645,-0.726443 l0.289875,-1.177457 l0.0255,-0.72149 l-0.269625,-0.291805 l0.0865,-0.472295 l-0.01525,-1.379702 l0.203375,-0.817376 l-0.152625,-1.226432 l0.86475,-0.430102 l1.002,0.515048 l1.1545,1.406827 l0.030625,0.790857 l0.0,0.010565 l0.025375,0.76948 l0.54425,1.480346 l0.07625,1.877575 Z" /><path class="land" d="M126.88325,104.658797 l-1.943,0.412993 l-1.525875,-0.564582 l-0.320375,-1.484771 l-0.696875,-1.139943 l-1.647875,-0.235344 l-1.302125,-0.329577 l-0.96125,-0.418428 l-3.13825,-0.16738 l-0.569625,-1.014936 l0.75275,-1.789661 l1.795375,-1.360912 l2.721125,-0.324617 l4.242,0.471158 l1.424125,0.319314 l1.9735,0.853253 l1.241,0.763991 l0.315375,0.753594 l-1.40375,2.071574 l-0.2645,1.725759 l0.16275,0.993329 l-0.8545,0.465186 Z" /><path class="land" d="M282.065125,275.719591 l2.84825,0.121437 l4.928625,-0.364445 l2.014125,0.106263 l1.4395,0.440458 l-0.19325,0.895984 l-1.948125,0.698446 l-1.13425,0.197389 l-2.6245,0.698454 l-5.3355,0.789259 l-4.491125,-0.03034 l-3.5655,-0.409851 l-2.99575,-1.40176 l-0.712125,-1.842578 l2.482125,-0.718989 l7.29375,-1.291384 l2.95,0.430537 l0.661125,1.124163 l-1.851375,0.42021 l0.234,0.136745 Z" /><path class="land" d="M275.737875,224.212849 l3.580625,6.697022 l0.1425,2.143745 l-2.497375,1.00008 l0.0,0.943855 l8.082,1.657614 l2.156625,0.907686 l0.412,0.550703 l1.236,2.069487 l0.9155,0.794887 l1.3275,0.351632 l2.51775,-0.035688 l1.2715,0.616556 l0.813875,1.207239 l2.675375,5.635625 l0.996875,0.870016 l0.9765,0.488338 l0.208625,0.442541 l-1.327625,0.757862 l-1.475,0.310214 l-1.546125,-0.188101 l-1.419125,-0.579842 l-1.10375,-0.864692 l-2.31425,-1.053144 l-6.50525,-0.076277 l-2.7415,-0.580119 l-2.527875,-1.053478 l-2.614375,-0.641343 l-5.605125,-0.397078 l-2.207375,0.249459 l-4.832,1.124926 l-2.349875,0.249271 l-12.48675,0.0 l1.587,1.18566 l5.142125,0.951366 l1.108875,0.935948 l0.122,2.10532 l0.407,1.667326 l0.75275,1.392458 l1.118875,1.305828 l1.993875,-3.440311 l0.72225,-0.894813 l1.297,-0.894837 l3.117875,-1.352846 l1.0935,-0.783316 l2.45675,-0.478221 l10.813375,3.509221 l8.717875,1.209874 l3.753625,1.169012 l1.648,0.249033 l1.37325,0.381146 l2.217625,1.646037 l0.712,0.381003 l0.95625,0.665317 l-0.966375,1.391534 l-1.475,1.24883 l-0.640875,0.17266 l-0.941,1.705343 l0.48325,-0.15739 l0.651,0.421276 l0.54425,0.710283 l0.106875,0.730511 l-0.7325,0.801591 l-2.853375,1.521448 l-4.0945,2.995901 l-2.527875,0.886853 l-13.16825,0.253413 l-2.594,-0.516925 l-2.731375,-2.113421 l-2.1515,-2.342583 l-2.2125,-1.94285 l-2.5075,-1.187247 l-3.062,-0.06086 l-1.75975,0.25366 l-0.671375,0.182693 l-0.905375,0.416117 l1.307125,0.740626 l1.6175,0.684802 l1.866625,0.426072 l2.039625,-0.06594 l0.0,0.765932 l-11.174625,3.482901 l0.0,0.851383 l3.90625,-0.304121 l3.3315,-1.125098 l3.143375,-0.623495 l3.351875,1.201331 l1.592,0.780398 l0.57975,0.456031 l0.488375,0.992998 l-0.523875,0.597828 l-1.28175,0.577472 l-0.33575,0.800193 l-0.579875,0.536756 l-0.54925,0.410154 l-0.244125,0.36956 l0.356,1.235166 l0.83925,-0.060707 l1.007125,-0.435292 l0.823875,0.111345 l2.477,3.319776 l0.935875,0.50078 l15.8285,0.0 l3.733375,-0.510976 l1.454625,0.192212 l0.864625,1.244364 l-4.404625,0.606912 l-5.279625,0.141557 l-4.954,0.798941 l-3.362,2.623658 l-1.63275,-1.056441 l-1.663125,-0.313308 l-1.744625,0.171812 l-1.8615,0.4246 l1.688625,0.050557 l1.536,0.404316 l2.822875,1.243192 l-3.596,3.545936 l-0.742625,1.534892 l7.192,-0.444292 l3.250125,0.408934 l3.290875,1.660603 l2.339625,2.366413 l2.319375,3.403965 l0.630625,2.862701 l-2.736375,0.745649 l2.126125,1.395309 l4.13,3.746036 l2.36,0.769947 l2.477,0.49815 l-0.595125,1.091861 l-2.176875,1.172115 l-2.2685,0.694051 l0.0,0.844854 l1.10375,0.377151 l1.124125,0.241328 l2.421,0.150871 l1.007125,0.402179 l0.610375,0.894818 l0.762875,0.894671 l1.5055,0.41202 l1.587,-0.658309 l1.40375,-1.251624 l1.6175,-0.738979 l2.2175,0.879696 l-0.244125,2.015474 l2.497375,0.658199 l6.362875,0.010126 l-1.75975,2.782812 l2.370125,1.461201 l3.763875,1.009074 l2.451625,1.415275 l-3.61125,5.828171 l-0.66125,1.814403 l3.13825,-0.285608 l3.209375,0.516153 l1.3225,1.437974 l-2.54825,2.464162 l1.98875,-0.185213 l1.63775,-0.806275 l1.556375,-0.485841 l1.729375,0.711206 l-0.020375,-2.564866 l-0.345875,-1.814012 l0.04575,-1.544031 l1.16475,-1.724911 l1.892125,-0.932989 l5.152375,-0.461438 l5.091375,-1.133852 l0.864625,1.439838 l-0.7985,1.900747 l-4.3945,1.584454 l-1.648,1.598895 l-0.981625,2.159486 l-0.050875,2.258803 l1.363125,-1.081711 l1.5665,-0.455813 l3.896125,-0.070043 l-0.57475,1.953118 l-1.0325,0.530712 l-1.31225,-0.090069 l-1.424125,0.130181 l-2.7975,0.931106 l-1.057875,0.56058 l-1.2615,1.021 l-0.879875,-1.7468 l-1.002,-1.231622 l-1.13425,-0.180153 l-1.25125,1.411774 l1.917625,1.106253 l1.525875,4.702478 l1.749625,1.889903 l2.0345,-1.454876 l7.375125,3.86886 l3.397625,0.104867 l-4.04875,-2.098962 l-1.515625,-1.394679 l0.437375,-1.685222 l0.92575,-0.280122 l1.1545,0.370215 l1.800625,0.820112 l3.448375,-2.090651 l1.744625,-0.66034 l2.705875,-0.165128 l2.49225,0.435249 l1.0885,1.18557 l0.72225,1.275269 l3.702875,1.009949 l1.6275,1.524706 l-1.75475,2.393509 l-3.209375,0.779352 l-3.723125,0.244783 l-3.260375,0.854076 l0.0,0.763989 l6.8665,0.005032 l3.209375,0.499326 l2.72625,1.238117 l4.353875,-1.547721 l2.482125,-0.284586 l1.780125,1.003655 l0.193375,1.826941 l-0.935875,2.080877 l-1.434375,1.825754 l-1.322375,1.032317 l-1.820875,0.34398 l-5.778,0.01495 l-1.78025,-0.35893 l-1.291875,-1.556087 l-0.106875,-1.691167 l-0.48825,-1.312322 l-2.466875,-0.454193 l0.88,4.405286 l-1.449625,4.227462 l-2.8585,2.192075 l-3.32125,-1.698803 l-0.798625,-1.848898 l-0.447625,-4.088761 l-0.528875,-1.586406 l-1.36825,-1.392333 l-2.039625,-1.437592 l-4.2775,-2.20196 l4.303,8.623106 l0.701875,4.216811 l-3.219625,1.389985 l-2.0955,-0.941596 l-1.642875,-1.813743 l-1.07325,-1.983917 l-0.3865,-1.495857 l-0.7375,-1.780565 l-3.3875,-3.178662 l-1.002,-2.271573 l-0.84425,0.0 l-0.539125,4.192972 l-2.92975,-0.3143 l-3.67225,-2.565476 l-2.792375,-2.536734 l-1.19525,-1.648388 l-0.997,-1.803891 l-1.16975,-1.439587 l-3.8045,-1.194929 l-1.241125,-1.415209 l-0.996875,-1.675867 l-1.307125,-1.350953 l-1.185125,0.770574 l-1.3225,0.155184 l-1.352875,-0.300288 l-1.261375,-0.625469 l1.46475,-1.626606 l1.098625,-1.802455 l-2.3905,0.776105 l-1.31225,0.100158 l-0.98675,-0.420579 l0.167875,-0.36548 l-1.19025,-3.401122 l-0.34075,-0.440976 l1.424125,-1.814153 l3.234875,-0.085248 l3.509625,0.776912 l2.22775,0.741701 l-1.052875,-2.075096 l-2.202375,-1.584386 l-2.6245,-1.018056 l-2.2685,-0.361172 l-1.57675,0.346134 l-1.42925,0.616897 l-1.419,0.225665 l-1.57675,-0.802378 l-3.290875,-3.110552 l-0.554375,-0.301187 l-1.332625,-2.56015 l-3.133125,-1.461228 l-6.6325,-1.461745 l-3.133125,-1.251085 l-15.207875,-7.9704 l-1.831125,-1.399186 l-0.366125,-1.188082 l0.0,-1.545899 l-0.254375,-1.334639 l-1.124,-0.574335 l-1.7345,-0.130995 l-0.57975,-0.443401 l0.178,-2.38367 l-1.36825,-0.287285 l-8.870375,-3.600472 l-9.470625,-6.703058 l3.234875,-3.112027 l1.8615,-0.697394 l2.66525,0.34877 l1.597125,0.72765 l5.228625,3.581435 l0.78325,-0.848435 l-4.816625,-4.036854 l-1.937875,-1.046366 l1.632625,-0.925165 l5.121875,3.472463 l2.232875,1.879397 l1.347875,0.919161 l1.536,0.585798 l-0.498375,-0.939294 l-0.523875,-0.732385 l-0.610375,-0.550595 l-0.768,-0.389113 l0.0,-0.77297 l0.315375,-2.289508 l-2.970375,-1.713946 l-6.815625,-2.017944 l-2.40075,-1.71513 l-3.590875,-4.110369 l-2.6245,-0.962233 l2.4515,4.480499 l0.7325,2.271802 l-1.04775,0.961032 l-2.644875,0.971052 l-2.522875,3.821488 l-2.93975,0.303258 l-1.037625,-0.555862 l-4.160625,-2.916601 l-0.188125,-0.298358 l-0.45775,-1.036613 l-0.208625,-0.288363 l-0.920625,-0.348915 l-2.14125,-0.546352 l-0.773125,-0.409769 l-1.6785,-1.467267 l-1.72425,-1.994133 l-0.350875,-2.085969 l2.471875,-1.711908 l-8.219375,-2.295303 l-2.4465,-1.611765 l-2.288875,-2.159989 l-0.946,-1.161473 l-0.991875,-2.475976 l0.468,-0.081193 l1.159625,-0.893324 l1.48525,-0.517702 l3.529875,0.670009 l1.0325,-0.152307 l1.159625,-0.751245 l1.47,-0.182775 l1.536,0.157449 l1.34275,0.309644 l4.6895,2.689737 l2.360125,0.639124 l1.5665,-1.623517 l-1.45975,-0.370535 l-1.236,-0.675034 l-0.96125,-0.99986 l-0.610375,-1.355689 l7.67525,4.253587 l-0.1425,-1.177356 l-0.467875,-0.933862 l-0.80875,-0.720807 l-1.13425,-0.49232 l0.0,-0.929242 l1.688625,-0.457006 l2.156625,-1.086886 l1.69875,-1.366407 l0.351,-1.280454 l-1.907375,-0.65558 l-6.388375,0.985899 l-2.3295,-0.792802 l-4.018125,-2.684002 l-4.740375,-0.544109 l-9.71475,0.279685 l0.539125,-1.271445 l0.391625,-0.503511 l-2.1515,0.462887 l-4.58775,0.498344 l-1.87175,0.813725 l-1.551375,-1.790207 l-1.958125,0.203511 l-2.13625,0.986569 l-2.0345,0.600127 l-2.410875,-0.401786 l-1.943,-1.093408 l-0.630625,-1.653283 l1.49525,-2.045802 l-2.431125,-0.60571 l-2.63475,-1.50181 l-1.703875,-1.532896 l0.40175,-0.713156 l1.978625,-0.626608 l-0.849375,-1.467338 l-3.301,-3.032989 l2.960125,-0.790379 l3.453625,0.698652 l3.5655,1.182802 l3.295875,0.621869 l10.80825,-0.08155 l3.306125,-0.70344 l0.95625,-0.509817 l2.115875,-1.540017 l1.276625,-0.591612 l2.100625,-0.224378 l6.0425,1.16278 l22.65425,-1.173059 l1.79025,-1.091567 l1.353,-1.581767 l7.954875,-4.022848 l0.620625,-0.076562 l1.398625,0.178726 l0.6155,-0.102164 l0.5595,-0.398384 l1.230875,-1.317863 l4.669125,-1.553279 l8.09225,-0.153218 l1.28175,-0.439583 l1.129125,-0.858672 l1.2055,-0.644094 l1.541125,0.225008 l0.48325,0.434411 Z" /><path class="earthquake" d="M237.75,299.179348 Z" stroke-linecap="round" stroke-width="5.292000000000001" /><path class="earthquake" d="M366.6375,419.992584 Z" stroke-linecap="round" stroke-width="6.074999999999999" /><path class="earthquake" d="M366.7875,416.053083 Z" stroke-linecap="round" stroke-width="6.074999999999999" /><path class="earthquake" d="M373.5,426.544076 Z" stroke-linecap="round" stroke-width="5.808000000000001" /><path class="earthquake" d="M388.25,423.263252 Z" stroke-linecap="round" stroke-width="6.347999999999999" /><path class="earthquake" d="M254.1375,310.231142 Z" stroke-linecap="round" stroke-width="6.074999999999999" /><path class="earthquake" d="M211.375,293.00628 Z" stroke-linecap="round" stroke-width="6.627" /><path class="earthquake" d="M226.9875,286.03142 Z" stroke-linecap="round" stroke-width="5.292000000000001" /><path class="earthquake" d="M276.3125,329.348374 Z" stroke-linecap="round" stroke-width="5.808000000000001" /><path class="earthquake" d="M214.3,287.583546 Z" stroke-linecap="round" stroke-width="5.292000000000001" /><path class="earthquake" d="M252.4375,275.838415 Z" stroke-linecap="round" stroke-width="4.563" /><path class="earthquake" d="M283.05,294.754791 Z" stroke-linecap="round" stroke-width="4.332" /><path class="earthquake" d="M222.5875,288.551846 Z" stroke-linecap="round" stroke-width="6.074999999999999" /><path class="earthquake" d="M225.125,281.832241 Z" stroke-linecap="round" stroke-width="5.546999999999999" /><path class="earthquake" d="M215.5,341.408553 Z" stroke-linecap="round" stroke-width="6.074999999999999" /><path class="earthquake" d="M237.375,327.007077 Z" stroke-linecap="round" stroke-width="6.074999999999999" /><path class="earthquake" d="M266.875,310.095143 Z" stroke-linecap="round" stroke-width="5.546999999999999" /><path class="earthquake" d="M242.125,322.074729 Z" stroke-linecap="round" stroke-width="6.074999999999999" /><path class="earthquake" d="M219.75,174.760582 Z" stroke-linecap="round" stroke-width="0.867" /><path class="earthquake" d="M221.5,174.760582 Z" stroke-linecap="round" stroke-width="1.083" /><path class="earthquake" d="M218.75,294.618402 Z" stroke-linecap="round" stroke-width="7.203" /><path class="earthquake" d="M244.375,324.788074 Z" stroke-linecap="round" stroke-width="5.546999999999999" /><path class="earthquake" d="M236.5,298.708559 Z" stroke-linecap="round" stroke-width="6.912" /><path class="earthquake" d="M243.875,288.539433 Z" stroke-linecap="round" stroke-width="6.347999999999999" /><path class="earthquake" d="M199.25,269.887757 Z" stroke-linecap="round" stroke-width="5.042999999999998" /><path class="earthquake" d="M203.75,255.794165 Z" stroke-linecap="round" stroke-width="6.347999999999999" /><path class="earthquake" d="M228.0,290.649237 Z" stroke-linecap="round" stroke-width="5.292000000000001" /><path class="earthquake" d="M185.375,254.420254 Z" stroke-linecap="round" stroke-width="6.074999999999999" /><path class="earthquake" d="M271.75,330.087522 Z" stroke-linecap="round" stroke-width="4.8" /><path class="earthquake" d="M418.25,400.096466 Z" stroke-linecap="round" stroke-width="6.627" /><path class="earthquake" d="M174.25,278.848594 Z" stroke-linecap="round" stroke-width="6.627" /><path class="earthquake" d="M245.875,292.510146 Z" stroke-linecap="round" stroke-width="7.802999999999998" /><path class="earthquake" d="M172.125,274.121116 Z" stroke-linecap="round" stroke-width="5.042999999999998" /><path class="earthquake" d="M193.625,268.268243 Z" stroke-linecap="round" stroke-width="5.042999999999998" /><path class="earthquake" d="M304.875,350.988403 Z" stroke-linecap="round" stroke-width="5.292000000000001" /><path class="earthquake" d="M312.125,352.828752 Z" stroke-linecap="round" stroke-width="5.546999999999999" /><path class="earthquake" d="M116.375,298.212947 Z" stroke-linecap="round" stroke-width="6.074999999999999" /><path class="earthquake" d="M137.125,295.85817 Z" stroke-linecap="round" stroke-width="5.042999999999998" /><path class="earthquake" d="M337.0,341.162694 Z" stroke-linecap="round" stroke-width="6.627" /><path class="earthquake" d="M197.625,314.791328 Z" stroke-linecap="round" stroke-width="6.912" /><path class="earthquake" d="M287.25,323.554903 Z" stroke-linecap="round" stroke-width="4.8" /><path class="earthquake" d="M180.375,353.074085 Z" stroke-linecap="round" stroke-width="7.802999999999998" /><path class="earthquake" d="M158.75,416.004579 Z" stroke-linecap="round" stroke-width="5.292000000000001" /><path class="earthquake" d="M337.125,336.735331 Z" stroke-linecap="round" stroke-width="4.8" /><path class="earthquake" d="M276.625,323.924884 Z" stroke-linecap="round" stroke-width="4.8" /><path class="earthquake" d="M300.375,317.014419 Z" stroke-linecap="round" stroke-width="4.8" /><path class="earthquake" d="M278.0,286.304626 Z" stroke-linecap="round" stroke-width="6.074999999999999" /><path class="earthquake" d="M291.625,295.85817 Z" stroke-linecap="round" stroke-width="5.546999999999999" /><path class="earthquake" d="M208.5,332.550621 Z" stroke-linecap="round" stroke-width="6.074999999999999" /><path class="earthquake" d="M205.0,311.949386 Z" stroke-linecap="round" stroke-width="4.8" /><path class="earthquake" d="M150.75,340.056191 Z" stroke-linecap="round" stroke-width="6.347999999999999" /><path class="earthquake" d="M169.125,313.802995 Z" stroke-linecap="round" stroke-width="4.8" /><path class="earthquake" d="M248.125,315.161906 Z" stroke-linecap="round" stroke-width="6.074999999999999" /><path class="earthquake" d="M222.625,352.95142 Z" stroke-linecap="round" stroke-width="6.912" /><path class="earthquake" d="M207.875,363.857813 Z" stroke-linecap="round" stroke-width="7.5" /><path class="earthquake" d="M257.25,355.772017 Z" stroke-linecap="round" stroke-width="6.074999999999999" /><path class="earthquake" d="M393.125,419.277623 Z" stroke-linecap="round" stroke-width="5.546999999999999" /><path class="earthquake" d="M178.75,281.210784 Z" stroke-linecap="round" stroke-width="5.808000000000001" /><path class="earthquake" d="M226.375,328.362688 Z" stroke-linecap="round" stroke-width="6.347999999999999" /><path class="earthquake" d="M247.0,311.70219 Z" stroke-linecap="round" stroke-width="8.112" /><path class="earthquake" d="M128.375,298.956348 Z" stroke-linecap="round" stroke-width="4.8" /><path class="earthquake" d="M181.125,334.397214 Z" stroke-linecap="round" stroke-width="6.627" /><path class="earthquake" d="M164.125,329.594768 Z" stroke-linecap="round" stroke-width="5.042999999999998" /><path class="earthquake" d="M197.5,330.210703 Z" stroke-linecap="round" stroke-width="5.042999999999998" /><path class="earthquake" d="M166.625,280.962181 Z" stroke-linecap="round" stroke-width="4.8" /><path class="earthquake" d="M221.625,342.637681 Z" stroke-linecap="round" stroke-width="7.802999999999998" /><path class="earthquake" d="M274.875,355.404196 Z" stroke-linecap="round" stroke-width="7.5" /><path class="earthquake" d="M204.0,350.374816 Z" stroke-linecap="round" stroke-width="5.292000000000001" /><path class="earthquake" d="M268.25,346.200585 Z" stroke-linecap="round" stroke-width="5.042999999999998" /><path class="earthquake" d="M235.375,352.092687 Z" stroke-linecap="round" stroke-width="8.427" /><path class="earthquake" d="M262.25,334.520298 Z" stroke-linecap="round" stroke-width="11.532" /><path class="earthquake" d="M198.125,352.95142 Z" stroke-linecap="round" stroke-width="5.042999999999998" /><path class="earthquake" d="M291.625,322.074729 Z" stroke-linecap="round" stroke-width="5.042999999999998" /><path class="earthquake" d="M221.5,316.890937 Z" stroke-linecap="round" stroke-width="4.8" /><path class="earthquake" d="M199.25,302.795629 Z" stroke-linecap="round" stroke-width="4.8" /><path class="earthquake" d="M213.25,307.127035 Z" stroke-linecap="round" stroke-width="5.546999999999999" /><path class="earthquake" d="M313.625,332.79687 Z" stroke-linecap="round" stroke-width="7.203" /><path class="earthquake" d="M195.625,311.454983 Z" stroke-linecap="round" stroke-width="5.546999999999999" /><path class="earthquake" d="M164.375,310.466042 Z" stroke-linecap="round" stroke-width="5.292000000000001" /><path class="earthquake" d="M270.625,323.924884 Z" stroke-linecap="round" stroke-width="5.808000000000001" /><path class="earthquake" d="M250.625,328.239464 Z" stroke-linecap="round" stroke-width="4.8" /><path class="earthquake" d="M263.375,358.958762 Z" stroke-linecap="round" stroke-width="5.808000000000001" /><path class="earthquake" d="M262.875,346.937447 Z" stroke-linecap="round" stroke-width="5.042999999999998" /><path class="earthquake" d="M272.375,331.934951 Z" stroke-linecap="round" stroke-width="4.8" /><path class="earthquake" d="M225.875,351.84731 Z" stroke-linecap="round" stroke-width="4.8" /><path class="earthquake" d="M232.375,368.997086 Z" stroke-linecap="round" stroke-width="4.8" /><path class="earthquake" d="M215.75,380.969943 Z" stroke-linecap="round" stroke-width="4.8" /><path class="earthquake" d="M280.375,377.673917 Z" stroke-linecap="round" stroke-width="4.8" /><path class="earthquake" d="M244.75,301.928932 Z" stroke-linecap="round" stroke-width="4.8" /><path class="earthquake" d="M178.25,308.363944 Z" stroke-linecap="round" stroke-width="5.808000000000001" /><path class="earthquake" d="M352.25,385.117669 Z" stroke-linecap="round" stroke-width="7.5" /><path class="earthquake" d="M245.125,324.418152 Z" stroke-linecap="round" stroke-width="6.347999999999999" /><path class="earthquake" d="M291.25,329.471572 Z" stroke-linecap="round" stroke-width="5.546999999999999" /><path class="earthquake" d="M317.875,324.911376 Z" stroke-linecap="round" stroke-width="5.808000000000001" /><path class="earthquake" d="M276.75,335.381807 Z" stroke-linecap="round" stroke-width="4.8" /><path class="earthquake" d="M200.375,262.907923 Z" stroke-linecap="round" stroke-width="5.292000000000001" /><path class="earthquake" d="M229.75,319.360027 Z" stroke-linecap="round" stroke-width="5.042999999999998" /><path class="earthquake" d="M144.5,351.601922 Z" stroke-linecap="round" stroke-width="5.042999999999998" /><path class="earthquake" d="M189.125,330.580231 Z" stroke-linecap="round" stroke-width="4.8" /><path class="earthquake" d="M245.375,315.161906 Z" stroke-linecap="round" stroke-width="7.5" /><path class="earthquake" d="M234.625,333.90485 Z" stroke-linecap="round" stroke-width="5.546999999999999" /><path class="earthquake" d="M320.5,344.480854 Z" stroke-linecap="round" stroke-width="4.8" /><path class="earthquake" d="M316.25,266.398968 Z" stroke-linecap="round" stroke-width="5.042999999999998" /><path class="earthquake" d="M212.75,307.374439 Z" stroke-linecap="round" stroke-width="6.627" /><path class="earthquake" d="M308.125,283.820424 Z" stroke-linecap="round" stroke-width="5.042999999999998" /><path class="earthquake" d="M192.0,289.780594 Z" stroke-linecap="round" stroke-width="6.627" /><path class="earthquake" d="M224.75,316.27349 Z" stroke-linecap="round" stroke-width="5.042999999999998" /><path class="earthquake" d="M203.0,298.832455 Z" stroke-linecap="round" stroke-width="5.292000000000001" /><path class="earthquake" d="M253.75,331.319211 Z" stroke-linecap="round" stroke-width="6.347999999999999" /><path class="earthquake" d="M383.625,389.018539 Z" stroke-linecap="round" stroke-width="4.8" /><path class="earthquake" d="M199.25,299.699647 Z" stroke-linecap="round" stroke-width="6.627" /><path class="earthquake" d="M234.875,329.964337 Z" stroke-linecap="round" stroke-width="6.347999999999999" /><path class="earthquake" d="M228.125,337.473475 Z" stroke-linecap="round" stroke-width="6.347999999999999" /><path class="earthquake" d="M190.25,299.699647 Z" stroke-linecap="round" stroke-width="8.112" /><path class="earthquake" d="M239.75,343.252142 Z" stroke-linecap="round" stroke-width="9.408" /><path class="earthquake" d="M166.625,276.485372 Z" stroke-linecap="round" stroke-width="8.748000000000001" /><path class="earthquake" d="M214.625,268.268243 Z" stroke-linecap="round" stroke-width="7.203" /><path class="earthquake" d="M203.25,321.33449 Z" stroke-linecap="round" stroke-width="8.112" /><path class="earthquake" d="M174.75,296.353997 Z" stroke-linecap="round" stroke-width="11.906999999999998" /><path class="earthquake" d="M190.875,301.557448 Z" stroke-linecap="round" stroke-width="5.546999999999999" /><path class="earthquake" d="M255.125,307.992901 Z" stroke-linecap="round" stroke-width="6.074999999999999" /><path class="earthquake" d="M169.625,306.137304 Z" stroke-linecap="round" stroke-width="4.8" /><path class="earthquake" d="M254.0,284.565805 Z" stroke-linecap="round" stroke-width="5.546999999999999" /><path class="earthquake" d="M305.125,315.285427 Z" stroke-linecap="round" stroke-width="6.074999999999999" /><path class="earthquake" d="M179.375,281.956524 Z" stroke-linecap="round" stroke-width="6.627" /><path class="earthquake" d="M163.875,295.238322 Z" stroke-linecap="round" stroke-width="5.808000000000001" /><path class="earthquake" d="M217.5,326.883822 Z" stroke-linecap="round" stroke-width="5.808000000000001" /><path class="earthquake" d="M197.25,341.777321 Z" stroke-linecap="round" stroke-width="5.808000000000001" /><path class="earthquake" d="M327.625,326.760566 Z" stroke-linecap="round" stroke-width="4.8" /><path class="earthquake" d="M132.25,300.318985 Z" stroke-linecap="round" stroke-width="4.8" /><path class="earthquake" d="M244.125,271.257736 Z" stroke-linecap="round" stroke-width="5.546999999999999" /><path class="earthquake" d="M239.125,317.631782 Z" stroke-linecap="round" stroke-width="4.8" /><path class="earthquake" d="M229.875,327.623305 Z" stroke-linecap="round" stroke-width="5.808000000000001" /><path class="earthquake" d="M220.75,304.528607 Z" stroke-linecap="round" stroke-width="5.292000000000001" /><path class="earthquake" d="M318.625,306.384754 Z" stroke-linecap="round" stroke-width="4.8" /><path class="earthquake" d="M209.125,296.230045 Z" stroke-linecap="round" stroke-width="5.292000000000001" /><path class="earthquake" d="M266.5,326.020965 Z" stroke-linecap="round" stroke-width="7.802999999999998" /><path class="earthquake" d="M189.375,373.887137 Z" stroke-linecap="round" stroke-width="5.292000000000001" /><path class="earthquake" d="M215.25,322.44481 Z" stroke-linecap="round" stroke-width="5.042999999999998" /><path class="earthquake" d="M190.75,302.300391 Z" stroke-linecap="round" stroke-width="4.8" /><path class="earthquake" d="M245.0,317.137897 Z" stroke-linecap="round" stroke-width="4.8" /><path class="earthquake" d="M193.75,300.071258 Z" stroke-linecap="round" stroke-width="4.8" /><path class="earthquake" d="M203.625,335.135675 Z" stroke-linecap="round" stroke-width="7.802999999999998" /><path class="earthquake" d="M233.25,324.29484 Z" stroke-linecap="round" stroke-width="8.112" /><path class="earthquake" d="M220.75,304.528607 Z" stroke-linecap="round" stroke-width="5.042999999999998" /><path class="earthquake" d="M197.5,330.210703 Z" stroke-linecap="round" stroke-width="5.546999999999999" /><path class="earthquake" d="M257.25,327.623305 Z" stroke-linecap="round" stroke-width="4.8" /><path class="earthquake" d="M221.125,319.85371 Z" stroke-linecap="round" stroke-width="5.546999999999999" /><path class="earthquake" d="M185.375,320.100535 Z" stroke-linecap="round" stroke-width="7.802999999999998" /><path class="earthquake" d="M237.375,378.528633 Z" stroke-linecap="round" stroke-width="4.8" /><path class="earthquake" d="M347.625,334.151038 Z" stroke-linecap="round" stroke-width="5.042999999999998" /><path class="earthquake" d="M271.0,342.514781 Z" stroke-linecap="round" stroke-width="6.347999999999999" /><path class="earthquake" d="M166.75,280.09198 Z" stroke-linecap="round" stroke-width="6.074999999999999" /><path class="earthquake" d="M203.625,335.135675 Z" stroke-linecap="round" stroke-width="5.292000000000001" /><path class="earthquake" d="M208.25,279.22164 Z" stroke-linecap="round" stroke-width="5.808000000000001" /><path class="earthquake" d="M298.25,263.905595 Z" stroke-linecap="round" stroke-width="5.042999999999998" /><path class="earthquake" d="M218.625,261.535823 Z" stroke-linecap="round" stroke-width="6.912" /><path class="earthquake" d="M220.0,368.997086 Z" stroke-linecap="round" stroke-width="5.292000000000001" /><path class="earthquake" d="M203.625,335.135675 Z" stroke-linecap="round" stroke-width="6.347999999999999" /><path class="earthquake" d="M215.875,369.363992 Z" stroke-linecap="round" stroke-width="5.042999999999998" /><path class="earthquake" d="M350.25,312.19657 Z" stroke-linecap="round" stroke-width="5.808000000000001" /><path class="earthquake" d="M248.75,349.515677 Z" stroke-linecap="round" stroke-width="8.427" /><path class="earthquake" d="M261.875,344.726563 Z" stroke-linecap="round" stroke-width="5.292000000000001" /><path class="earthquake" d="M238.125,307.745525 Z" stroke-linecap="round" stroke-width="5.042999999999998" /><path class="earthquake" d="M159.875,294.49441 Z" stroke-linecap="round" stroke-width="5.808000000000001" /><path class="earthquake" d="M207.0,359.816414 Z" stroke-linecap="round" stroke-width="5.546999999999999" /><path class="earthquake" d="M240.75,367.773888 Z" stroke-linecap="round" stroke-width="5.546999999999999" /><path class="earthquake" d="M289.75,328.732341 Z" stroke-linecap="round" stroke-width="5.292000000000001" /><path class="earthquake" d="M171.125,374.375901 Z" stroke-linecap="round" stroke-width="4.8" /><path class="earthquake" d="M243.125,300.195123 Z" stroke-linecap="round" stroke-width="4.8" /><path class="earthquake" d="M343.625,382.312199 Z" stroke-linecap="round" stroke-width="4.8" /><path class="earthquake" d="M304.875,340.179147 Z" stroke-linecap="round" stroke-width="8.112" /><path class="earthquake" d="M180.625,284.068896 Z" stroke-linecap="round" stroke-width="7.203" /><path class="earthquake" d="M218.875,295.982131 Z" stroke-linecap="round" stroke-width="5.808000000000001" /><path class="earthquake" d="M208.75,359.081292 Z" stroke-linecap="round" stroke-width="7.203" /><path class="earthquake" d="M257.25,335.135675 Z" stroke-linecap="round" stroke-width="4.8" /><path class="earthquake" d="M272.375,382.190189 Z" stroke-linecap="round" stroke-width="5.808000000000001" /><path class="earthquake" d="M203.625,363.368106 Z" stroke-linecap="round" stroke-width="4.8" /><path class="earthquake" d="M302.625,340.179147 Z" stroke-linecap="round" stroke-width="4.8" /><path class="earthquake" d="M130.875,368.50784 Z" stroke-linecap="round" stroke-width="4.8" /><path class="earthquake" d="M281.75,296.477947 Z" stroke-linecap="round" stroke-width="4.8" /><path class="earthquake" d="M330.0,338.211519 Z" stroke-linecap="round" stroke-width="8.112" /><path class="earthquake" d="M191.5,327.376822 Z" stroke-linecap="round" stroke-width="5.808000000000001" /><path class="earthquake" d="M176.5,294.246417 Z" stroke-linecap="round" stroke-width="5.042999999999998" /><path class="earthquake" d="M154.0,287.918746 Z" stroke-linecap="round" stroke-width="5.042999999999998" /><path class="earthquake" d="M160.0,279.470323 Z" stroke-linecap="round" stroke-width="6.074999999999999" /><path class="earthquake" d="M318.625,322.198092 Z" stroke-linecap="round" stroke-width="5.292000000000001" /><path class="earthquake" d="M181.125,302.548016 Z" stroke-linecap="round" stroke-width="4.8" /><path class="earthquake" d="M251.5,386.21507 Z" stroke-linecap="round" stroke-width="5.042999999999998" /><path class="earthquake" d="M288.5,330.580231 Z" stroke-linecap="round" stroke-width="4.8" /><path class="earthquake" d="M326.625,272.253866 Z" stroke-linecap="round" stroke-width="5.292000000000001" /><path class="earthquake" d="M334.625,278.475522 Z" stroke-linecap="round" stroke-width="5.292000000000001" /><path class="earthquake" d="M164.625,303.043231 Z" stroke-linecap="round" stroke-width="5.808000000000001" /><path class="earthquake" d="M249.125,328.609126 Z" stroke-linecap="round" stroke-width="5.546999999999999" /><path class="earthquake" d="M276.25,319.606874 Z" stroke-linecap="round" stroke-width="5.546999999999999" /><path class="earthquake" d="M134.125,300.938252 Z" stroke-linecap="round" stroke-width="5.292000000000001" /><path class="earthquake" d="M241.0,319.483452 Z" stroke-linecap="round" stroke-width="5.546999999999999" /><path class="earthquake" d="M253.375,335.997087 Z" stroke-linecap="round" stroke-width="5.546999999999999" /><path class="earthquake" d="M140.875,311.825789 Z" stroke-linecap="round" stroke-width="5.808000000000001" /><path class="earthquake" d="M228.5,325.651127 Z" stroke-linecap="round" stroke-width="6.074999999999999" /><path class="earthquake" d="M210.5,288.787688 Z" stroke-linecap="round" stroke-width="5.546999999999999" /><path class="earthquake" d="M254.375,300.690554 Z" stroke-linecap="round" stroke-width="5.042999999999998" /><path class="earthquake" d="M230.25,292.634183 Z" stroke-linecap="round" stroke-width="5.042999999999998" /><path class="earthquake" d="M262.625,294.742392 Z" stroke-linecap="round" stroke-width="5.042999999999998" /><path class="earthquake" d="M212.625,311.825789 Z" stroke-linecap="round" stroke-width="8.427" /><path class="earthquake" d="M218.375,293.00628 Z" stroke-linecap="round" stroke-width="6.627" /><path class="earthquake" d="M200.625,288.787688 Z" stroke-linecap="round" stroke-width="7.802999999999998" /><path class="earthquake" d="M188.75,302.548016 Z" stroke-linecap="round" stroke-width="8.112" /><path class="earthquake" d="M254.75,308.487619 Z" stroke-linecap="round" stroke-width="9.075" /><path class="earthquake" d="M246.75,316.149991 Z" stroke-linecap="round" stroke-width="6.347999999999999" /><path class="earthquake" d="M225.125,270.13687 Z" stroke-linecap="round" stroke-width="5.292000000000001" /><path class="earthquake" d="M252.375,329.348374 Z" stroke-linecap="round" stroke-width="5.546999999999999" /><path class="earthquake" d="M237.375,282.205081 Z" stroke-linecap="round" stroke-width="18.252" /><path class="earthquake" d="M24.625,116.375203 Z" stroke-linecap="round" stroke-width="5.292000000000001" /><style>
    .land { fill: #333333; }
    .earthquake { stroke: chocolate;
                  opacity: 0.8; }
    </style></svg>